<svg width="13" height="16" viewBox="0 0 13 16" fill="none" xmlns="http://www.w3.org/2000/svg">
<path d="M10.4211 8.45781C10.4284 7.90587 10.5786 7.36467 10.8577 6.88461C11.1368 6.40455 11.5357 6.00123 12.0173 5.71215C11.7113 5.28549 11.3077 4.93443 10.8384 4.68675C10.3691 4.43901 9.84718 4.30161 9.31396 4.28529C8.17654 4.16877 7.07392 4.94979 6.49432 4.94979C5.9035 4.94979 5.01112 4.29687 4.05015 4.31619C3.42856 4.33581 2.82279 4.51227 2.29185 4.82841C1.76091 5.14449 1.32289 5.58951 1.02048 6.12009C-0.289453 8.33427 0.687641 11.5885 1.94247 13.3784C2.57025 14.2548 3.30399 15.2337 4.26411 15.199C5.20359 15.1609 5.55448 14.6141 6.68854 14.6141C7.8121 14.6141 8.14131 15.199 9.12088 15.177C10.129 15.1609 10.7642 14.2966 11.37 13.4119C11.8211 12.7874 12.1682 12.0972 12.3984 11.3669C11.8127 11.1251 11.3129 10.7202 10.9613 10.2029C10.6097 9.68559 10.4218 9.07863 10.4211 8.45781Z" fill="white"/>
<path d="M8.57011 3.10904C9.11977 2.46482 9.39055 1.63679 9.32497 0.800781C8.48521 0.886893 7.70947 1.27874 7.15237 1.89825C6.88003 2.20088 6.67141 2.55296 6.53845 2.93438C6.40555 3.3158 6.35095 3.71906 6.37771 4.12106C6.79777 4.12526 7.21333 4.0364 7.59307 3.86108C7.97281 3.68582 8.30689 3.42866 8.57011 3.10904Z" fill="white"/>
</svg>
