<svg width="16" height="16" viewBox="0 0 16 16" fill="none" xmlns="http://www.w3.org/2000/svg">
<g clip-path="url(#clip0_2125_38722)">
<path fill-rule="evenodd" clip-rule="evenodd" d="M4.13565 0H3.22656L9.04474 6.5L3.22656 16H4.18111H6.63565H10.1317C13.3722 16 15.9993 13.373 15.9993 10.1324C15.9993 8.17955 14.4582 6.58664 12.5259 6.50341C13.6769 6.08614 14.4993 4.98314 14.4993 3.68802C14.4993 1.65118 12.8481 0 10.8113 0H6.63565H4.13565Z" fill="url(#paint0_linear_2125_38722)"/>
<mask id="mask0_2125_38722" style="mask-type:alpha" maskUnits="userSpaceOnUse" x="3" y="0" width="13" height="16">
<path d="M9.04474 6.5H12.4538L6.63565 16H3.22656L9.04474 6.5Z" fill="#015ADF"/>
<path d="M3.22656 0H6.63565L12.4538 6.5H9.04474L3.22656 0Z" fill="#015ADF"/>
<path d="M4.13281 0H10.8084C12.8453 0 14.4964 1.65118 14.4964 3.68802C14.4964 5.34145 13.1561 6.68182 11.5026 6.68182H9.97372L4.13281 0Z" fill="#015ADF"/>
<path d="M9.95241 6.5H12.3655C14.3716 6.5 15.9979 8.12627 15.9979 10.1324C15.9979 13.373 13.3708 16 10.1302 16H4.17969L9.95241 6.5Z" fill="#015ADF"/>
</mask>
<g mask="url(#mask0_2125_38722)">
<path d="M13.0447 0H26.5447L16.7266 16H3.22656L13.0447 0Z" fill="#015ADF"/>
</g>
<path fill-rule="evenodd" clip-rule="evenodd" d="M0 0V3.8093L2.40909 6.5L0 10.4354V16L5.81818 6.5L0 0Z" fill="url(#paint1_linear_2125_38722)"/>
<path fill-rule="evenodd" clip-rule="evenodd" d="M0 0V3.8093L2.40909 6.5L0 10.4354V16L5.81818 6.5L0 0Z" fill="url(#paint2_linear_2125_38722)"/>
<path fill-rule="evenodd" clip-rule="evenodd" d="M0 0V3.8093L2.40909 6.5L0 10.4354V16L5.81818 6.5L0 0Z" fill="url(#paint3_linear_2125_38722)"/>
<mask id="mask1_2125_38722" style="mask-type:alpha" maskUnits="userSpaceOnUse" x="0" y="0" width="6" height="16">
<path d="M2.40909 6.5H5.81818L0 16V10.4354L2.40909 6.5Z" fill="#015ADF"/>
<path d="M0 3.8093V0L5.81818 6.5H2.40909L0 3.8093Z" fill="#015ADF"/>
</mask>
<g mask="url(#mask1_2125_38722)">
<path d="M6.41193 0H11.9119L2.09375 16H-3.40625L6.41193 0Z" fill="#015ADF"/>
</g>
</g>
<defs>
<linearGradient id="paint0_linear_2125_38722" x1="3.22656" y1="0" x2="12.4993" y2="6.72727" gradientUnits="userSpaceOnUse">
<stop stop-color="#015ADF"/>
<stop offset="1" stop-color="#0544A2"/>
</linearGradient>
<linearGradient id="paint1_linear_2125_38722" x1="2.90909" y1="0" x2="2.90909" y2="16" gradientUnits="userSpaceOnUse">
<stop stop-color="#015ADF"/>
<stop offset="1" stop-color="#0352C8"/>
</linearGradient>
<linearGradient id="paint2_linear_2125_38722" x1="0" y1="0" x2="5.81227" y2="1.9208" gradientUnits="userSpaceOnUse">
<stop stop-color="#015ADF"/>
<stop offset="1" stop-color="#0352C8"/>
</linearGradient>
<linearGradient id="paint3_linear_2125_38722" x1="0" y1="0" x2="5.81227" y2="1.9208" gradientUnits="userSpaceOnUse">
<stop stop-color="#015ADF"/>
<stop offset="1" stop-color="#0544A2"/>
</linearGradient>
<clipPath id="clip0_2125_38722">
<rect width="16" height="16" fill="white"/>
</clipPath>
</defs>
</svg>
