<svg width="17" height="16" viewBox="0 0 17 16" fill="none" xmlns="http://www.w3.org/2000/svg">
<g clip-path="url(#clip0_2125_19862)">
<g clip-path="url(#clip1_2125_19862)">
<path d="M6.07533 0.526614C4.47668 1.0812 3.09801 2.13382 2.14182 3.52987C1.18563 4.92591 0.702319 6.59179 0.762883 8.28282C0.823447 9.97385 1.42469 11.6009 2.4783 12.925C3.53191 14.249 4.98235 15.2003 6.61658 15.6391C7.94148 15.981 9.32959 15.996 10.6616 15.6829C11.8682 15.4118 12.9838 14.8321 13.8991 14.0004C14.8517 13.1083 15.5431 11.9735 15.8991 10.7179C16.286 9.35245 16.3548 7.91653 16.1003 6.52036H8.66033V9.60661H12.9691C12.883 10.0988 12.6984 10.5687 12.4265 10.9879C12.1546 11.4072 11.8009 11.7672 11.3866 12.0466C10.8604 12.3947 10.2673 12.6288 9.64533 12.7341C9.02151 12.8501 8.38165 12.8501 7.75783 12.7341C7.12557 12.6034 6.52745 12.3424 6.00158 11.9679C5.15677 11.3698 4.52243 10.5203 4.18908 9.54036C3.8501 8.54211 3.8501 7.45987 4.18908 6.46161C4.42636 5.76188 4.81862 5.12478 5.33658 4.59786C5.92932 3.9838 6.67975 3.54486 7.50552 3.32921C8.3313 3.11356 9.20053 3.12953 10.0178 3.37536C10.6563 3.57135 11.2401 3.91379 11.7228 4.37536C12.2087 3.89203 12.6937 3.40745 13.1778 2.92161C13.4278 2.66036 13.7003 2.41161 13.9466 2.14411C13.2098 1.45846 12.3449 0.924935 11.4016 0.574114C9.68371 -0.0496489 7.80405 -0.0664119 6.07533 0.526614Z" fill="#474747"/>
<path d="M6.0725 0.527221C7.80108 -0.0662075 9.68074 -0.0498857 11.3987 0.573471C12.3423 0.926676 13.2067 1.46277 13.9425 2.15097C13.6925 2.41847 13.4288 2.66847 13.1737 2.92847C12.6888 3.41264 12.2042 3.89514 11.72 4.37597C11.2373 3.91439 10.6535 3.57196 10.015 3.37597C9.19797 3.12927 8.32877 3.11238 7.50277 3.32715C6.67678 3.54192 5.92589 3.98005 5.3325 4.59347C4.81454 5.12039 4.42228 5.75749 4.185 6.45722L1.59375 4.45097C2.52126 2.61167 4.12719 1.20475 6.0725 0.527221Z" fill="#E33629"/>
<path d="M0.908903 6.43672C1.04818 5.74646 1.27941 5.078 1.5964 4.44922L4.18765 6.46047C3.84867 7.45873 3.84867 8.54096 4.18765 9.53922C3.32432 10.2059 2.46057 10.8759 1.5964 11.5492C0.802841 9.96961 0.560819 8.16985 0.908903 6.43672Z" fill="#F8BD00"/>
<path d="M8.65681 6.51953H16.0968C16.3513 7.9157 16.2825 9.35162 15.8956 10.717C15.5396 11.9726 14.8482 13.1075 13.8956 13.9995C13.0593 13.347 12.2193 12.6995 11.3831 12.047C11.7977 11.7674 12.1515 11.4069 12.4234 10.9872C12.6954 10.5675 12.8798 10.0972 12.9656 9.60453H8.65681C8.65556 8.57703 8.65681 7.54828 8.65681 6.51953Z" fill="#587DBD"/>
<path d="M1.59375 11.5491C2.45792 10.8824 3.32167 10.2124 4.185 9.53906C4.51901 10.5193 5.15426 11.3689 6 11.9666C6.52751 12.3394 7.12691 12.5982 7.76 12.7266C8.38382 12.8426 9.02368 12.8426 9.6475 12.7266C10.2695 12.6213 10.8626 12.3871 11.3888 12.0391C12.225 12.6916 13.065 13.3391 13.9012 13.9916C12.9861 14.8237 11.8705 15.4039 10.6637 15.6753C9.33176 15.9884 7.94365 15.9734 6.61875 15.6316C5.57088 15.3518 4.59209 14.8586 3.74375 14.1828C2.84583 13.4699 2.11244 12.5715 1.59375 11.5491Z" fill="#319F43"/>
</g>
</g>
<defs>
<clipPath id="clip0_2125_19862">
<rect width="16" height="16" fill="white" transform="translate(0.5)"/>
</clipPath>
<clipPath id="clip1_2125_19862">
<rect width="16" height="16" fill="white" transform="translate(0.5)"/>
</clipPath>
</defs>
</svg>
