<svg width="16" height="16" viewBox="0 0 16 16" fill="none" xmlns="http://www.w3.org/2000/svg">
<path d="M5.31101 2.26414C5.14189 2.43332 5.04688 2.66274 5.04688 2.90196C5.04688 3.14118 5.14189 3.37061 5.31101 3.53978L9.77668 8.00545L5.31101 12.4711C5.14668 12.6413 5.05575 12.8691 5.0578 13.1057C5.05986 13.3422 5.15474 13.5685 5.322 13.7358C5.48927 13.903 5.71554 13.9979 5.95208 14C6.18862 14.002 6.41651 13.9111 6.58666 13.7468L11.6901 8.64327C11.8593 8.47409 11.9543 8.24467 11.9543 8.00545C11.9543 7.76623 11.8593 7.5368 11.6901 7.36762L6.58666 2.26414C6.41748 2.09501 6.18806 2 5.94884 2C5.70962 2 5.48019 2.09501 5.31101 2.26414Z" fill="#025AE0"/>
</svg>
