<svg width="13" height="16" viewBox="0 0 13 16" fill="none" xmlns="http://www.w3.org/2000/svg">
<path d="M6.28228 7.67969L0.453125 14.0062C0.453677 14.0073 0.453677 14.009 0.454223 14.0102C0.633251 14.6971 1.24644 15.2027 1.97458 15.2027C2.26588 15.2027 2.53906 15.122 2.77342 14.981L2.79202 14.9697L9.35314 11.0982L6.28228 7.67969Z" fill="#EA4335"/>
<path d="M12.178 6.60091L12.1724 6.59701L9.33978 4.91797L6.14844 7.82203L9.35124 11.0961L12.1687 9.43387C12.6625 9.16069 12.9981 8.62825 12.9981 8.01463C12.9981 7.40437 12.6674 6.87469 12.178 6.60091Z" fill="#FBBC04"/>
<path d="M0.45209 2C0.41705 2.13212 0.398438 2.27096 0.398438 2.4143V13.5938C0.398438 13.7371 0.417049 13.876 0.452641 14.0076L6.4816 7.8428L0.45209 2Z" fill="#4285F4"/>
<path d="M6.32548 8.00073L9.34216 4.91637L2.78872 1.03089C2.55058 0.884758 2.27242 0.800781 1.97512 0.800781C1.24699 0.800781 0.632705 1.30746 0.453677 1.99499L0.453125 1.99667L6.32548 8.00073Z" fill="#34A853"/>
</svg>
