<svg width="1255" height="120" viewBox="0 0 1255 120" fill="none" xmlns="http://www.w3.org/2000/svg">
<g clip-path="url(#clip0_3364_149821)">
<rect width="1255" height="120" rx="8" fill="url(#paint0_linear_3364_149821)"/>
<rect x="971" y="24" width="243.737" height="152.514" rx="4" fill="#EEEEEE"/>
<rect x="971" y="24.7188" width="243.737" height="152.514" rx="4" fill="#242424"/>
<rect x="1092.16" y="26.1445" width="2.13805" height="2.13805" rx="1.06902" fill="#888888"/>
<rect x="978.84" y="30.4141" width="228.931" height="143.25" rx="4" fill="white"/>
<path d="M978.84 34.4141C978.84 32.2049 980.631 30.4141 982.84 30.4141H1203.61C1205.82 30.4141 1207.61 32.2049 1207.61 34.4141V38.9663H978.84V34.4141Z" fill="#0C9E49"/>
<rect x="990.242" y="33.2656" width="24.9439" height="3.56342" rx="1.78171" fill="#59C487"/>
<rect x="985.254" y="33.2656" width="3.56341" height="3.56342" rx="1.78171" fill="#59C487"/>
<rect x="978.84" y="38.9609" width="228.771" height="17.1044" fill="#EEEEEE"/>
<rect x="985.254" y="42.5273" width="26.3692" height="9.97758" rx="4" fill="white"/>
<rect x="1014.48" y="42.5273" width="26.3692" height="9.97758" rx="4" fill="white"/>
<rect x="1043.7" y="42.5273" width="26.3692" height="9.97758" rx="4" fill="white"/>
<rect x="1072.91" y="42.5273" width="26.3692" height="9.97758" rx="4" fill="white"/>
<rect x="1102.13" y="42.5273" width="26.3692" height="9.97758" rx="4" fill="white"/>
<rect x="1131.35" y="42.5273" width="26.3692" height="9.97758" rx="4" fill="white"/>
<rect x="1160.57" y="42.5273" width="26.3692" height="9.97758" rx="4" fill="white"/>
<path d="M1189.79 46.5273C1189.79 44.3182 1191.58 42.5273 1193.79 42.5273H1207.61V52.5049H1193.79C1191.58 52.5049 1189.79 50.7141 1189.79 48.5049V46.5273Z" fill="white"/>
<rect x="978.84" y="63.9141" width="228.771" height="7.12684" fill="#EBEDEC"/>
<rect x="1000.22" y="66.0469" width="3.56341" height="3.56342" rx="1.78171" fill="#C7C7C7"/>
<rect x="1032.29" y="66.0469" width="3.56341" height="3.56342" rx="1.78171" fill="#C7C7C7"/>
<rect x="1064.36" y="66.0469" width="3.56341" height="3.56342" rx="1.78171" fill="#C7C7C7"/>
<rect x="1096.43" y="66.0469" width="3.56341" height="3.56342" rx="1.78171" fill="#C7C7C7"/>
<rect x="1128.5" y="66.0469" width="3.56341" height="3.56342" rx="1.78171" fill="#C7C7C7"/>
<rect x="1160.57" y="66.0469" width="3.56341" height="3.56342" rx="1.78171" fill="#C7C7C7"/>
<rect x="1192.64" y="66.0469" width="3.56341" height="3.56342" rx="1.78171" fill="#C7C7C7"/>
<path d="M987.391 71.043V173.669" stroke="#ECECEC"/>
<path d="M1018.75 71.043V173.669" stroke="#ECECEC"/>
<path d="M1050.11 71.043V173.669" stroke="#ECECEC"/>
<path d="M1081.47 71.043V173.669" stroke="#ECECEC"/>
<path d="M1112.82 71.043V173.669" stroke="#ECECEC"/>
<path d="M1144.18 71.043V173.669" stroke="#ECECEC"/>
<path d="M1175.54 71.043V173.669" stroke="#ECECEC"/>
<path d="M978.84 78.8672H1207.61" stroke="#ECECEC"/>
<path d="M978.84 87.4219H1207.61" stroke="#ECECEC"/>
<path d="M978.84 95.9766H1207.61" stroke="#ECECEC"/>
<path d="M978.84 104.531H1207.61" stroke="#ECECEC"/>
<path d="M978.84 113.082H1207.61" stroke="#ECECEC"/>
<rect x="1053.67" y="73.1758" width="24.9439" height="4" rx="2" fill="#B4DFC5"/>
<rect x="1053.67" y="85.1758" width="24.9439" height="4" rx="2" fill="#B4DFC5"/>
<rect x="1053.67" y="97.1758" width="24.9439" height="4" rx="2" fill="#B4DFC5"/>
<rect x="1053.67" y="109.176" width="24.9439" height="4" rx="2" fill="#B4DFC5"/>
<rect x="1021.6" y="73.1758" width="24.9439" height="4" rx="2" fill="#D4D4D4"/>
<rect x="1021.6" y="85.1758" width="24.9439" height="4" rx="2" fill="#D4D4D4"/>
<rect x="1021.6" y="97.1758" width="24.9439" height="4" rx="2" fill="#D4D4D4"/>
<rect x="1021.6" y="109.176" width="24.9439" height="4" rx="2" fill="#D4D4D4"/>
<rect x="990.242" y="73.1758" width="24.9439" height="4" rx="2" fill="#D4D4D4"/>
<rect x="990.242" y="85.1758" width="24.9439" height="4" rx="2" fill="#D4D4D4"/>
<rect x="990.242" y="97.1758" width="24.9439" height="4" rx="2" fill="#D4D4D4"/>
<rect x="990.242" y="109.176" width="24.9439" height="4" rx="2" fill="#D4D4D4"/>
<rect x="981.688" y="73.1758" width="4" height="4" rx="2" fill="#D4D4D4"/>
<rect x="981.688" y="85.1758" width="4" height="4" rx="2" fill="#D4D4D4"/>
<rect x="981.688" y="97.1758" width="4" height="4" rx="2" fill="#D4D4D4"/>
<rect x="981.688" y="109.176" width="4" height="4" rx="2" fill="#D4D4D4"/>
<rect x="1085.03" y="73.1758" width="24.9439" height="4" rx="2" fill="#BBC6E4"/>
<rect x="1085.03" y="85.1758" width="24.9439" height="4" rx="2" fill="#BBC6E4"/>
<rect x="1085.03" y="97.1758" width="24.9439" height="4" rx="2" fill="#BBC6E4"/>
<rect x="1085.03" y="109.176" width="24.9439" height="4" rx="2" fill="#BBC6E4"/>
<rect x="1115.67" y="73.1758" width="24.9439" height="4" rx="2" fill="#E8AFB0"/>
<rect x="1115.67" y="85.1758" width="24.9439" height="4" rx="2" fill="#E8AFB0"/>
<rect x="1115.67" y="97.1758" width="24.9439" height="4" rx="2" fill="#E8AFB0"/>
<rect x="1115.67" y="109.176" width="24.9439" height="4" rx="2" fill="#E8AFB0"/>
<rect x="1179.82" y="73.1758" width="24.9439" height="4" rx="2" fill="#E8AFB0"/>
<rect x="1179.82" y="85.1758" width="24.9439" height="4" rx="2" fill="#BBC6E4"/>
<rect x="1179.82" y="97.1758" width="24.9439" height="4" rx="2" fill="#E8AFB0"/>
<rect x="1147.03" y="73.1758" width="24.9439" height="4" rx="2" fill="#BBC6E4"/>
<rect x="1147.03" y="85.1758" width="24.9439" height="4" rx="2" fill="#E8AFB0"/>
<rect x="1147.03" y="97.1758" width="24.9439" height="4" rx="2" fill="#B4DFC5"/>
<path d="M61.815 50.855C62.7103 50.855 63.464 50.753 64.076 50.549C64.6993 50.3337 65.2037 50.0447 65.589 49.682C65.9857 49.3193 66.269 48.8943 66.439 48.407C66.6203 47.9083 66.711 47.3757 66.711 46.809C66.711 45.653 66.3143 44.7463 65.521 44.089C64.739 43.4203 63.498 43.086 61.798 43.086H56.885V50.855H61.815ZM56.885 32.631V40.281H60.863C62.563 40.281 63.8323 39.9523 64.671 39.295C65.5097 38.6377 65.929 37.6913 65.929 36.456C65.929 35.1073 65.5323 34.1327 64.739 33.532C63.957 32.9313 62.7273 32.631 61.05 32.631H56.885ZM61.05 29.52C62.614 29.52 63.9513 29.673 65.062 29.979C66.1727 30.2737 67.085 30.6987 67.799 31.254C68.513 31.8093 69.0343 32.4893 69.363 33.294C69.703 34.0873 69.873 34.9827 69.873 35.98C69.873 36.558 69.7823 37.119 69.601 37.663C69.431 38.1957 69.159 38.7 68.785 39.176C68.4223 39.6407 67.9633 40.06 67.408 40.434C66.8527 40.808 66.1953 41.1197 65.436 41.369C68.904 42.1057 70.638 43.9473 70.638 46.894C70.638 47.9367 70.4397 48.8943 70.043 49.767C69.6577 50.6283 69.091 51.3763 68.343 52.011C67.6063 52.6343 66.694 53.1217 65.606 53.473C64.518 53.8243 63.277 54 61.883 54H52.907V29.52H61.05ZM88.7279 36.66V54H86.5179C86.0305 54 85.7189 53.7677 85.5829 53.303L85.3109 51.688C84.9482 52.0733 84.5629 52.4247 84.1549 52.742C83.7582 53.0593 83.3332 53.3313 82.8799 53.558C82.4265 53.7847 81.9392 53.9603 81.4179 54.085C80.9079 54.2097 80.3582 54.272 79.7689 54.272C78.8169 54.272 77.9782 54.1133 77.2529 53.796C76.5275 53.4787 75.9155 53.031 75.4169 52.453C74.9295 51.875 74.5612 51.1837 74.3119 50.379C74.0625 49.563 73.9379 48.6677 73.9379 47.693V36.66H77.5929V47.693C77.5929 48.8603 77.8592 49.767 78.3919 50.413C78.9359 51.059 79.7575 51.382 80.8569 51.382C81.6615 51.382 82.4095 51.2007 83.1009 50.838C83.8035 50.464 84.4609 49.954 85.0729 49.308V36.66H88.7279ZM96.8895 28.84V54H93.2345V28.84H96.8895ZM105.056 28.84V43.426H105.838C106.087 43.426 106.291 43.392 106.45 43.324C106.608 43.256 106.773 43.1143 106.943 42.899L111.805 37.34C111.975 37.1133 112.162 36.9433 112.366 36.83C112.57 36.7167 112.83 36.66 113.148 36.66H116.463L110.615 43.256C110.275 43.698 109.901 44.0493 109.493 44.31C109.719 44.4687 109.918 44.65 110.088 44.854C110.258 45.0467 110.422 45.2677 110.581 45.517L116.82 54H113.556C113.261 54 113.006 53.9547 112.791 53.864C112.587 53.762 112.405 53.5807 112.247 53.32L107.232 46.52C107.062 46.2593 106.892 46.095 106.722 46.027C106.552 45.9477 106.297 45.908 105.957 45.908H105.056V54H101.401V28.84H105.056ZM132.306 54H128.311V29.52H132.306V54ZM137.161 54V36.66H139.371C139.869 36.66 140.187 36.8923 140.323 37.357L140.561 38.87C140.878 38.5073 141.207 38.1787 141.547 37.884C141.887 37.578 142.249 37.3173 142.635 37.102C143.031 36.8753 143.451 36.6997 143.893 36.575C144.346 36.4503 144.833 36.388 145.355 36.388C145.91 36.388 146.42 36.4673 146.885 36.626C147.349 36.7847 147.757 37.0113 148.109 37.306C148.471 37.6007 148.783 37.9577 149.044 38.377C149.304 38.7963 149.52 39.2667 149.69 39.788C149.95 39.1873 150.279 38.6717 150.676 38.241C151.072 37.8103 151.514 37.459 152.002 37.187C152.489 36.915 153.005 36.7167 153.549 36.592C154.104 36.456 154.665 36.388 155.232 36.388C156.161 36.388 156.988 36.5353 157.714 36.83C158.45 37.1247 159.068 37.5553 159.567 38.122C160.077 38.6773 160.462 39.363 160.723 40.179C160.983 40.995 161.114 41.9243 161.114 42.967V54H157.459V42.967C157.459 41.743 157.192 40.825 156.66 40.213C156.138 39.5897 155.362 39.278 154.331 39.278C153.866 39.278 153.43 39.3573 153.022 39.516C152.614 39.6747 152.257 39.907 151.951 40.213C151.645 40.519 151.401 40.9043 151.22 41.369C151.05 41.8223 150.965 42.355 150.965 42.967V54H147.31V42.967C147.31 41.6977 147.055 40.7683 146.545 40.179C146.035 39.5783 145.287 39.278 144.301 39.278C143.621 39.278 142.992 39.4537 142.414 39.805C141.836 40.145 141.303 40.6153 140.816 41.216V54H137.161ZM169.038 49.648C169.548 50.3053 170.104 50.77 170.704 51.042C171.316 51.3027 171.991 51.433 172.727 51.433C174.155 51.433 175.266 50.9117 176.059 49.869C176.864 48.8263 177.266 47.2737 177.266 45.211C177.266 44.1457 177.176 43.239 176.994 42.491C176.813 41.7317 176.552 41.114 176.212 40.638C175.872 40.162 175.459 39.8163 174.971 39.601C174.484 39.3857 173.934 39.278 173.322 39.278C172.393 39.278 171.588 39.482 170.908 39.89C170.24 40.2867 169.616 40.859 169.038 41.607V49.648ZM168.851 39.176C169.577 38.326 170.398 37.6403 171.316 37.119C172.246 36.5977 173.322 36.337 174.546 36.337C175.521 36.337 176.405 36.5353 177.198 36.932C177.992 37.3173 178.672 37.884 179.238 38.632C179.805 39.38 180.241 40.3093 180.547 41.42C180.865 42.5193 181.023 43.783 181.023 45.211C181.023 46.4917 180.848 47.6873 180.496 48.798C180.156 49.8973 179.663 50.855 179.017 51.671C178.371 52.4757 177.589 53.1103 176.671 53.575C175.753 54.0283 174.716 54.255 173.56 54.255C172.54 54.255 171.673 54.0907 170.959 53.762C170.257 53.4333 169.616 52.98 169.038 52.402V59.763H165.383V36.66H167.593C168.092 36.66 168.409 36.8923 168.545 37.357L168.851 39.176ZM192.072 36.388C193.352 36.388 194.508 36.5977 195.54 37.017C196.582 37.4363 197.466 38.0313 198.192 38.802C198.928 39.5727 199.495 40.5077 199.892 41.607C200.288 42.7063 200.487 43.9417 200.487 45.313C200.487 46.6843 200.288 47.9197 199.892 49.019C199.495 50.1183 198.928 51.059 198.192 51.841C197.466 52.6117 196.582 53.2067 195.54 53.626C194.508 54.0453 193.352 54.255 192.072 54.255C190.78 54.255 189.612 54.0453 188.57 53.626C187.538 53.2067 186.654 52.6117 185.918 51.841C185.181 51.059 184.614 50.1183 184.218 49.019C183.821 47.9197 183.623 46.6843 183.623 45.313C183.623 43.9417 183.821 42.7063 184.218 41.607C184.614 40.5077 185.181 39.5727 185.918 38.802C186.654 38.0313 187.538 37.4363 188.57 37.017C189.612 36.5977 190.78 36.388 192.072 36.388ZM192.072 51.399C193.636 51.399 194.797 50.8777 195.557 49.835C196.327 48.781 196.713 47.2793 196.713 45.33C196.713 43.3807 196.327 41.879 195.557 40.825C194.797 39.7597 193.636 39.227 192.072 39.227C190.485 39.227 189.306 39.7597 188.536 40.825C187.765 41.879 187.38 43.3807 187.38 45.33C187.38 47.2793 187.765 48.781 188.536 49.835C189.306 50.8777 190.485 51.399 192.072 51.399ZM207.449 39.873C207.993 38.7737 208.651 37.9123 209.421 37.289C210.192 36.6543 211.116 36.337 212.192 36.337C212.566 36.337 212.918 36.3823 213.246 36.473C213.575 36.5523 213.87 36.677 214.13 36.847L213.875 39.601C213.83 39.7937 213.756 39.9297 213.654 40.009C213.564 40.077 213.439 40.111 213.28 40.111C213.11 40.111 212.867 40.0827 212.549 40.026C212.232 39.958 211.898 39.924 211.546 39.924C211.036 39.924 210.583 39.9977 210.186 40.145C209.801 40.2923 209.45 40.5077 209.132 40.791C208.826 41.0743 208.554 41.42 208.316 41.828C208.078 42.236 207.857 42.7007 207.653 43.222V54H203.998V36.66H206.123C206.509 36.66 206.775 36.7337 206.922 36.881C207.07 37.017 207.172 37.2607 207.228 37.612L207.449 39.873ZM222.108 54.272C220.669 54.272 219.558 53.8697 218.776 53.065C218.006 52.249 217.62 51.1043 217.62 49.631V39.533H215.716C215.512 39.533 215.337 39.4707 215.189 39.346C215.042 39.21 214.968 39.0117 214.968 38.751V37.272L217.773 36.864L218.572 31.849C218.629 31.6563 218.725 31.5033 218.861 31.39C218.997 31.2653 219.179 31.203 219.405 31.203H221.275V36.898H226.086V39.533H221.275V49.376C221.275 49.9993 221.428 50.4753 221.734 50.804C222.04 51.1327 222.448 51.297 222.958 51.297C223.242 51.297 223.485 51.263 223.689 51.195C223.893 51.1157 224.069 51.0363 224.216 50.957C224.364 50.8663 224.488 50.787 224.59 50.719C224.704 50.6397 224.811 50.6 224.913 50.6C225.117 50.6 225.282 50.7133 225.406 50.94L226.494 52.725C225.928 53.2237 225.259 53.609 224.488 53.881C223.718 54.1417 222.924 54.272 222.108 54.272Z" fill="#22B947"/>
<path d="M57.469 79.894L57.462 81H51.281V70.969H57.462V72.075H52.639V75.407H56.545V76.471H52.639V79.894H57.469ZM60.0517 74.938C60.2057 74.7653 60.369 74.609 60.5417 74.469C60.7143 74.329 60.8963 74.21 61.0877 74.112C61.2837 74.0093 61.489 73.9323 61.7037 73.881C61.923 73.825 62.1587 73.797 62.4107 73.797C62.798 73.797 63.1387 73.8623 63.4327 73.993C63.7313 74.119 63.9787 74.301 64.1747 74.539C64.3753 74.7723 64.527 75.0547 64.6297 75.386C64.7323 75.7173 64.7837 76.0837 64.7837 76.485V81H63.5307V76.485C63.5307 75.9483 63.407 75.533 63.1597 75.239C62.917 74.9403 62.546 74.791 62.0467 74.791C61.678 74.791 61.3327 74.8797 61.0107 75.057C60.6933 75.2343 60.3993 75.4747 60.1287 75.778V81H58.8757V73.909H59.6247C59.802 73.909 59.9117 73.9953 59.9537 74.168L60.0517 74.938ZM68.7636 81.112C68.2036 81.112 67.7719 80.9557 67.4686 80.643C67.1699 80.3303 67.0206 79.88 67.0206 79.292V74.952H66.1666C66.0919 74.952 66.0289 74.931 65.9776 74.889C65.9263 74.8423 65.9006 74.7723 65.9006 74.679V74.182L67.0626 74.035L67.3496 71.844C67.3636 71.774 67.3939 71.718 67.4406 71.676C67.4919 71.6293 67.5573 71.606 67.6366 71.606H68.2666V74.049H70.3176V74.952H68.2666V79.208C68.2666 79.5067 68.3389 79.7283 68.4836 79.873C68.6283 80.0177 68.8149 80.09 69.0436 80.09C69.1743 80.09 69.2863 80.0737 69.3796 80.041C69.4776 80.0037 69.5616 79.964 69.6316 79.922C69.7016 79.88 69.7599 79.8427 69.8066 79.81C69.8579 79.7727 69.9023 79.754 69.9396 79.754C70.0049 79.754 70.0633 79.7937 70.1146 79.873L70.4786 80.468C70.2639 80.6687 70.0049 80.8273 69.7016 80.944C69.3983 81.056 69.0856 81.112 68.7636 81.112ZM76.3092 76.681C76.3092 76.3917 76.2672 76.128 76.1832 75.89C76.1038 75.6473 75.9848 75.4397 75.8262 75.267C75.6722 75.0897 75.4832 74.9543 75.2592 74.861C75.0352 74.763 74.7808 74.714 74.4962 74.714C73.8988 74.714 73.4252 74.889 73.0752 75.239C72.7298 75.5843 72.5152 76.065 72.4312 76.681H76.3092ZM77.3172 80.006C77.1632 80.1927 76.9788 80.356 76.7642 80.496C76.5495 80.6313 76.3185 80.7433 76.0712 80.832C75.8285 80.9207 75.5765 80.986 75.3152 81.028C75.0538 81.0747 74.7948 81.098 74.5382 81.098C74.0482 81.098 73.5955 81.0163 73.1802 80.853C72.7695 80.685 72.4125 80.4423 72.1092 80.125C71.8105 79.803 71.5772 79.4063 71.4092 78.935C71.2412 78.4637 71.1572 77.9223 71.1572 77.311C71.1572 76.8163 71.2318 76.3543 71.3812 75.925C71.5352 75.4957 71.7545 75.1247 72.0392 74.812C72.3238 74.4947 72.6715 74.2473 73.0822 74.07C73.4928 73.888 73.9548 73.797 74.4682 73.797C74.8928 73.797 75.2848 73.8693 75.6442 74.014C76.0082 74.154 76.3208 74.3593 76.5822 74.63C76.8482 74.896 77.0558 75.2273 77.2052 75.624C77.3545 76.016 77.4292 76.464 77.4292 76.968C77.4292 77.164 77.4082 77.2947 77.3662 77.36C77.3242 77.4253 77.2448 77.458 77.1282 77.458H72.3892C72.4032 77.906 72.4638 78.2957 72.5712 78.627C72.6832 78.9583 72.8372 79.236 73.0332 79.46C73.2292 79.6793 73.4625 79.845 73.7332 79.957C74.0038 80.0643 74.3072 80.118 74.6432 80.118C74.9558 80.118 75.2242 80.083 75.4482 80.013C75.6768 79.9383 75.8728 79.859 76.0362 79.775C76.1995 79.691 76.3348 79.614 76.4422 79.544C76.5542 79.4693 76.6498 79.432 76.7292 79.432C76.8318 79.432 76.9112 79.4717 76.9672 79.551L77.3172 80.006ZM80.1427 75.33C80.3667 74.8447 80.642 74.4667 80.9687 74.196C81.2953 73.9207 81.6943 73.783 82.1657 73.783C82.315 73.783 82.4573 73.7993 82.5927 73.832C82.7327 73.8647 82.8563 73.916 82.9637 73.986L82.8727 74.917C82.8447 75.0337 82.7747 75.092 82.6627 75.092C82.5973 75.092 82.5017 75.078 82.3757 75.05C82.2497 75.022 82.1073 75.008 81.9487 75.008C81.7247 75.008 81.524 75.0407 81.3467 75.106C81.174 75.1713 81.0177 75.2693 80.8777 75.4C80.7423 75.526 80.6187 75.6847 80.5067 75.876C80.3993 76.0627 80.3013 76.2773 80.2127 76.52V81H78.9597V73.909H79.6737C79.809 73.909 79.9023 73.9347 79.9537 73.986C80.005 74.0373 80.04 74.126 80.0587 74.252L80.1427 75.33ZM89.5175 81.112C88.9575 81.112 88.5258 80.9557 88.2225 80.643C87.9238 80.3303 87.7745 79.88 87.7745 79.292V74.952H86.9205C86.8458 74.952 86.7828 74.931 86.7315 74.889C86.6802 74.8423 86.6545 74.7723 86.6545 74.679V74.182L87.8165 74.035L88.1035 71.844C88.1175 71.774 88.1478 71.718 88.1945 71.676C88.2458 71.6293 88.3112 71.606 88.3905 71.606H89.0205V74.049H91.0715V74.952H89.0205V79.208C89.0205 79.5067 89.0928 79.7283 89.2375 79.873C89.3822 80.0177 89.5688 80.09 89.7975 80.09C89.9282 80.09 90.0402 80.0737 90.1335 80.041C90.2315 80.0037 90.3155 79.964 90.3855 79.922C90.4555 79.88 90.5138 79.8427 90.5605 79.81C90.6118 79.7727 90.6562 79.754 90.6935 79.754C90.7588 79.754 90.8172 79.7937 90.8685 79.873L91.2325 80.468C91.0178 80.6687 90.7588 80.8273 90.4555 80.944C90.1522 81.056 89.8395 81.112 89.5175 81.112ZM93.6111 74.854C93.9144 74.532 94.2504 74.2753 94.6191 74.084C94.9878 73.8927 95.4124 73.797 95.8931 73.797C96.2804 73.797 96.6211 73.8623 96.9151 73.993C97.2138 74.119 97.4611 74.301 97.6571 74.539C97.8578 74.7723 98.0094 75.0547 98.1121 75.386C98.2148 75.7173 98.2661 76.0837 98.2661 76.485V81H97.0131V76.485C97.0131 75.9483 96.8894 75.533 96.6421 75.239C96.3994 74.9403 96.0284 74.791 95.5291 74.791C95.1604 74.791 94.8151 74.8797 94.4931 75.057C94.1758 75.2343 93.8818 75.4747 93.6111 75.778V81H92.3581V70.689H93.6111V74.854ZM104.911 76.681C104.911 76.3917 104.869 76.128 104.785 75.89C104.705 75.6473 104.586 75.4397 104.428 75.267C104.274 75.0897 104.085 74.9543 103.861 74.861C103.637 74.763 103.382 74.714 103.098 74.714C102.5 74.714 102.027 74.889 101.677 75.239C101.331 75.5843 101.117 76.065 101.033 76.681H104.911ZM105.919 80.006C105.765 80.1927 105.58 80.356 105.366 80.496C105.151 80.6313 104.92 80.7433 104.673 80.832C104.43 80.9207 104.178 80.986 103.917 81.028C103.655 81.0747 103.396 81.098 103.14 81.098C102.65 81.098 102.197 81.0163 101.782 80.853C101.371 80.685 101.014 80.4423 100.711 80.125C100.412 79.803 100.179 79.4063 100.011 78.935C99.8427 78.4637 99.7587 77.9223 99.7587 77.311C99.7587 76.8163 99.8334 76.3543 99.9827 75.925C100.137 75.4957 100.356 75.1247 100.641 74.812C100.925 74.4947 101.273 74.2473 101.684 74.07C102.094 73.888 102.556 73.797 103.07 73.797C103.494 73.797 103.886 73.8693 104.246 74.014C104.61 74.154 104.922 74.3593 105.184 74.63C105.45 74.896 105.657 75.2273 105.807 75.624C105.956 76.016 106.031 76.464 106.031 76.968C106.031 77.164 106.01 77.2947 105.968 77.36C105.926 77.4253 105.846 77.458 105.73 77.458H100.991C101.005 77.906 101.065 78.2957 101.173 78.627C101.285 78.9583 101.439 79.236 101.635 79.46C101.831 79.6793 102.064 79.845 102.335 79.957C102.605 80.0643 102.909 80.118 103.245 80.118C103.557 80.118 103.826 80.083 104.05 80.013C104.278 79.9383 104.474 79.859 104.638 79.775C104.801 79.691 104.936 79.614 105.044 79.544C105.156 79.4693 105.251 79.432 105.331 79.432C105.433 79.432 105.513 79.4717 105.569 79.551L105.919 80.006ZM120.131 75.988C120.131 76.7393 120.012 77.423 119.774 78.039C119.536 78.655 119.2 79.1823 118.766 79.621C118.332 80.0597 117.81 80.4003 117.198 80.643C116.592 80.881 115.92 81 115.182 81H111.437V70.969H115.182C115.92 70.969 116.592 71.0903 117.198 71.333C117.81 71.571 118.332 71.9117 118.766 72.355C119.2 72.7937 119.536 73.321 119.774 73.937C120.012 74.553 120.131 75.2367 120.131 75.988ZM118.738 75.988C118.738 75.372 118.654 74.8213 118.486 74.336C118.318 73.8507 118.08 73.44 117.772 73.104C117.464 72.768 117.091 72.5113 116.652 72.334C116.214 72.1567 115.724 72.068 115.182 72.068H112.795V79.901H115.182C115.724 79.901 116.214 79.8123 116.652 79.635C117.091 79.4577 117.464 79.2033 117.772 78.872C118.08 78.536 118.318 78.1253 118.486 77.64C118.654 77.1547 118.738 76.604 118.738 75.988ZM126.444 76.681C126.444 76.3917 126.402 76.128 126.318 75.89C126.239 75.6473 126.12 75.4397 125.961 75.267C125.807 75.0897 125.618 74.9543 125.394 74.861C125.17 74.763 124.916 74.714 124.631 74.714C124.034 74.714 123.56 74.889 123.21 75.239C122.865 75.5843 122.65 76.065 122.566 76.681H126.444ZM127.452 80.006C127.298 80.1927 127.114 80.356 126.899 80.496C126.684 80.6313 126.453 80.7433 126.206 80.832C125.963 80.9207 125.711 80.986 125.45 81.028C125.189 81.0747 124.93 81.098 124.673 81.098C124.183 81.098 123.73 81.0163 123.315 80.853C122.904 80.685 122.547 80.4423 122.244 80.125C121.945 79.803 121.712 79.4063 121.544 78.935C121.376 78.4637 121.292 77.9223 121.292 77.311C121.292 76.8163 121.367 76.3543 121.516 75.925C121.67 75.4957 121.889 75.1247 122.174 74.812C122.459 74.4947 122.806 74.2473 123.217 74.07C123.628 73.888 124.09 73.797 124.603 73.797C125.028 73.797 125.42 73.8693 125.779 74.014C126.143 74.154 126.456 74.3593 126.717 74.63C126.983 74.896 127.191 75.2273 127.34 75.624C127.489 76.016 127.564 76.464 127.564 76.968C127.564 77.164 127.543 77.2947 127.501 77.36C127.459 77.4253 127.38 77.458 127.263 77.458H122.524C122.538 77.906 122.599 78.2957 122.706 78.627C122.818 78.9583 122.972 79.236 123.168 79.46C123.364 79.6793 123.597 79.845 123.868 79.957C124.139 80.0643 124.442 80.118 124.778 80.118C125.091 80.118 125.359 80.083 125.583 80.013C125.812 79.9383 126.008 79.859 126.171 79.775C126.334 79.691 126.47 79.614 126.577 79.544C126.689 79.4693 126.785 79.432 126.864 79.432C126.967 79.432 127.046 79.4717 127.102 79.551L127.452 80.006ZM131.217 81.112C130.657 81.112 130.225 80.9557 129.922 80.643C129.623 80.3303 129.474 79.88 129.474 79.292V74.952H128.62C128.545 74.952 128.482 74.931 128.431 74.889C128.379 74.8423 128.354 74.7723 128.354 74.679V74.182L129.516 74.035L129.803 71.844C129.817 71.774 129.847 71.718 129.894 71.676C129.945 71.6293 130.01 71.606 130.09 71.606H130.72V74.049H132.771V74.952H130.72V79.208C130.72 79.5067 130.792 79.7283 130.937 79.873C131.081 80.0177 131.268 80.09 131.497 80.09C131.627 80.09 131.739 80.0737 131.833 80.041C131.931 80.0037 132.015 79.964 132.085 79.922C132.155 79.88 132.213 79.8427 132.26 79.81C132.311 79.7727 132.355 79.754 132.393 79.754C132.458 79.754 132.516 79.7937 132.568 79.873L132.932 80.468C132.717 80.6687 132.458 80.8273 132.155 80.944C131.851 81.056 131.539 81.112 131.217 81.112ZM137.9 77.808C137.326 77.8267 136.836 77.8733 136.43 77.948C136.029 78.018 135.7 78.1113 135.443 78.228C135.191 78.3447 135.007 78.4823 134.89 78.641C134.778 78.7997 134.722 78.977 134.722 79.173C134.722 79.3597 134.753 79.5207 134.813 79.656C134.874 79.7913 134.956 79.9033 135.058 79.992C135.166 80.076 135.289 80.139 135.429 80.181C135.574 80.2183 135.728 80.237 135.891 80.237C136.111 80.237 136.311 80.216 136.493 80.174C136.675 80.1273 136.846 80.062 137.004 79.978C137.168 79.894 137.322 79.7937 137.466 79.677C137.616 79.5603 137.76 79.4273 137.9 79.278V77.808ZM133.875 74.91C134.267 74.532 134.69 74.2497 135.142 74.063C135.595 73.8763 136.097 73.783 136.647 73.783C137.044 73.783 137.396 73.8483 137.704 73.979C138.012 74.1097 138.271 74.2917 138.481 74.525C138.691 74.7583 138.85 75.0407 138.957 75.372C139.065 75.7033 139.118 76.0673 139.118 76.464V81H138.565C138.444 81 138.351 80.9813 138.285 80.944C138.22 80.902 138.169 80.8227 138.131 80.706L137.991 80.034C137.805 80.2067 137.623 80.3607 137.445 80.496C137.268 80.6267 137.081 80.7387 136.885 80.832C136.689 80.9207 136.479 80.9883 136.255 81.035C136.036 81.0863 135.791 81.112 135.52 81.112C135.245 81.112 134.986 81.0747 134.743 81C134.501 80.9207 134.288 80.804 134.106 80.65C133.929 80.496 133.787 80.3023 133.679 80.069C133.577 79.831 133.525 79.551 133.525 79.229C133.525 78.949 133.602 78.6807 133.756 78.424C133.91 78.1627 134.16 77.9317 134.505 77.731C134.851 77.5303 135.301 77.367 135.856 77.241C136.412 77.1103 137.093 77.0357 137.9 77.017V76.464C137.9 75.9133 137.781 75.498 137.543 75.218C137.305 74.9333 136.958 74.791 136.5 74.791C136.192 74.791 135.933 74.8307 135.723 74.91C135.518 74.9847 135.338 75.071 135.184 75.169C135.035 75.2623 134.904 75.3487 134.792 75.428C134.685 75.5027 134.578 75.54 134.47 75.54C134.386 75.54 134.314 75.519 134.253 75.477C134.193 75.4303 134.141 75.3743 134.099 75.309L133.875 74.91ZM142.332 73.909V81H141.086V73.909H142.332ZM142.598 71.683C142.598 71.8043 142.573 71.9187 142.521 72.026C142.475 72.1287 142.409 72.222 142.325 72.306C142.246 72.3853 142.15 72.4483 142.038 72.495C141.931 72.5417 141.817 72.565 141.695 72.565C141.574 72.565 141.46 72.5417 141.352 72.495C141.25 72.4483 141.159 72.3853 141.079 72.306C141 72.222 140.937 72.1287 140.89 72.026C140.844 71.9187 140.82 71.8043 140.82 71.683C140.82 71.5617 140.844 71.4473 140.89 71.34C140.937 71.228 141 71.1323 141.079 71.053C141.159 70.969 141.25 70.9037 141.352 70.857C141.46 70.8103 141.574 70.787 141.695 70.787C141.817 70.787 141.931 70.8103 142.038 70.857C142.15 70.9037 142.246 70.969 142.325 71.053C142.409 71.1323 142.475 71.228 142.521 71.34C142.573 71.4473 142.598 71.5617 142.598 71.683ZM145.668 70.689V81H144.422V70.689H145.668ZM151.818 75.078C151.762 75.1807 151.676 75.232 151.559 75.232C151.489 75.232 151.41 75.2063 151.321 75.155C151.233 75.1037 151.123 75.0477 150.992 74.987C150.866 74.9217 150.715 74.8633 150.537 74.812C150.36 74.756 150.15 74.728 149.907 74.728C149.697 74.728 149.508 74.756 149.34 74.812C149.172 74.8633 149.028 74.9357 148.906 75.029C148.79 75.1223 148.699 75.232 148.633 75.358C148.573 75.4793 148.542 75.6123 148.542 75.757C148.542 75.939 148.594 76.0907 148.696 76.212C148.804 76.3333 148.944 76.4383 149.116 76.527C149.289 76.6157 149.485 76.695 149.704 76.765C149.924 76.8303 150.148 76.9027 150.376 76.982C150.61 77.0567 150.836 77.1407 151.055 77.234C151.275 77.3273 151.471 77.444 151.643 77.584C151.816 77.724 151.954 77.8967 152.056 78.102C152.164 78.3027 152.217 78.5453 152.217 78.83C152.217 79.1567 152.159 79.46 152.042 79.74C151.926 80.0153 151.753 80.2557 151.524 80.461C151.296 80.6617 151.016 80.8203 150.684 80.937C150.353 81.0537 149.97 81.112 149.536 81.112C149.042 81.112 148.594 81.0327 148.192 80.874C147.791 80.7107 147.45 80.503 147.17 80.251L147.464 79.775C147.502 79.7143 147.546 79.6677 147.597 79.635C147.649 79.6023 147.714 79.586 147.793 79.586C147.877 79.586 147.966 79.6187 148.059 79.684C148.153 79.7493 148.265 79.8217 148.395 79.901C148.531 79.9803 148.694 80.0527 148.885 80.118C149.077 80.1833 149.315 80.216 149.599 80.216C149.842 80.216 150.054 80.1857 150.236 80.125C150.418 80.0597 150.57 79.9733 150.691 79.866C150.813 79.7587 150.901 79.635 150.957 79.495C151.018 79.355 151.048 79.2057 151.048 79.047C151.048 78.851 150.995 78.69 150.887 78.564C150.785 78.4333 150.647 78.3237 150.474 78.235C150.302 78.1417 150.103 78.0623 149.879 77.997C149.66 77.927 149.434 77.8547 149.2 77.78C148.972 77.7053 148.745 77.6213 148.521 77.528C148.302 77.43 148.106 77.3087 147.933 77.164C147.761 77.0193 147.621 76.842 147.513 76.632C147.411 76.4173 147.359 76.1583 147.359 75.855C147.359 75.5843 147.415 75.3253 147.527 75.078C147.639 74.826 147.803 74.6067 148.017 74.42C148.232 74.2287 148.496 74.077 148.808 73.965C149.121 73.853 149.478 73.797 149.879 73.797C150.346 73.797 150.764 73.8717 151.132 74.021C151.506 74.1657 151.828 74.3663 152.098 74.623L151.818 75.078ZM160.316 73.797C160.834 73.797 161.301 73.8833 161.716 74.056C162.131 74.2287 162.486 74.4737 162.78 74.791C163.074 75.1083 163.298 75.4933 163.452 75.946C163.611 76.394 163.69 76.8957 163.69 77.451C163.69 78.011 163.611 78.515 163.452 78.963C163.298 79.411 163.074 79.7937 162.78 80.111C162.486 80.4283 162.131 80.6733 161.716 80.846C161.301 81.014 160.834 81.098 160.316 81.098C159.793 81.098 159.322 81.014 158.902 80.846C158.487 80.6733 158.132 80.4283 157.838 80.111C157.544 79.7937 157.318 79.411 157.159 78.963C157.005 78.515 156.928 78.011 156.928 77.451C156.928 76.8957 157.005 76.394 157.159 75.946C157.318 75.4933 157.544 75.1083 157.838 74.791C158.132 74.4737 158.487 74.2287 158.902 74.056C159.322 73.8833 159.793 73.797 160.316 73.797ZM160.316 80.125C161.016 80.125 161.539 79.8917 161.884 79.425C162.229 78.9537 162.402 78.298 162.402 77.458C162.402 76.6133 162.229 75.9553 161.884 75.484C161.539 75.0127 161.016 74.777 160.316 74.777C159.961 74.777 159.651 74.8377 159.385 74.959C159.124 75.0803 158.904 75.2553 158.727 75.484C158.554 75.7127 158.424 75.995 158.335 76.331C158.251 76.6623 158.209 77.038 158.209 77.458C158.209 78.298 158.382 78.9537 158.727 79.425C159.077 79.8917 159.607 80.125 160.316 80.125ZM165.582 81V74.973L164.798 74.882C164.7 74.8587 164.618 74.8237 164.553 74.777C164.492 74.7257 164.462 74.6533 164.462 74.56V74.049H165.582V73.363C165.582 72.957 165.638 72.5977 165.75 72.285C165.866 71.9677 166.03 71.7017 166.24 71.487C166.454 71.2677 166.711 71.102 167.01 70.99C167.308 70.878 167.644 70.822 168.018 70.822C168.335 70.822 168.627 70.8687 168.893 70.962L168.865 71.585C168.855 71.697 168.792 71.7577 168.676 71.767C168.564 71.7763 168.412 71.781 168.221 71.781C168.006 71.781 167.81 71.809 167.633 71.865C167.46 71.921 167.311 72.012 167.185 72.138C167.059 72.264 166.961 72.4297 166.891 72.635C166.825 72.8403 166.793 73.0947 166.793 73.398V74.049H168.837V74.952H166.835V81H165.582ZM175.527 81.112C174.967 81.112 174.536 80.9557 174.232 80.643C173.934 80.3303 173.784 79.88 173.784 79.292V74.952H172.93C172.856 74.952 172.793 74.931 172.741 74.889C172.69 74.8423 172.664 74.7723 172.664 74.679V74.182L173.826 74.035L174.113 71.844C174.127 71.774 174.158 71.718 174.204 71.676C174.256 71.6293 174.321 71.606 174.4 71.606H175.03V74.049H177.081V74.952H175.03V79.208C175.03 79.5067 175.103 79.7283 175.247 79.873C175.392 80.0177 175.579 80.09 175.807 80.09C175.938 80.09 176.05 80.0737 176.143 80.041C176.241 80.0037 176.325 79.964 176.395 79.922C176.465 79.88 176.524 79.8427 176.57 79.81C176.622 79.7727 176.666 79.754 176.703 79.754C176.769 79.754 176.827 79.7937 176.878 79.873L177.242 80.468C177.028 80.6687 176.769 80.8273 176.465 80.944C176.162 81.056 175.849 81.112 175.527 81.112ZM179.621 74.854C179.924 74.532 180.26 74.2753 180.629 74.084C180.998 73.8927 181.422 73.797 181.903 73.797C182.29 73.797 182.631 73.8623 182.925 73.993C183.224 74.119 183.471 74.301 183.667 74.539C183.868 74.7723 184.019 75.0547 184.122 75.386C184.225 75.7173 184.276 76.0837 184.276 76.485V81H183.023V76.485C183.023 75.9483 182.899 75.533 182.652 75.239C182.409 74.9403 182.038 74.791 181.539 74.791C181.17 74.791 180.825 74.8797 180.503 75.057C180.186 75.2343 179.892 75.4747 179.621 75.778V81H178.368V70.689H179.621V74.854ZM190.921 76.681C190.921 76.3917 190.879 76.128 190.795 75.89C190.715 75.6473 190.596 75.4397 190.438 75.267C190.284 75.0897 190.095 74.9543 189.871 74.861C189.647 74.763 189.392 74.714 189.108 74.714C188.51 74.714 188.037 74.889 187.687 75.239C187.341 75.5843 187.127 76.065 187.043 76.681H190.921ZM191.929 80.006C191.775 80.1927 191.59 80.356 191.376 80.496C191.161 80.6313 190.93 80.7433 190.683 80.832C190.44 80.9207 190.188 80.986 189.927 81.028C189.665 81.0747 189.406 81.098 189.15 81.098C188.66 81.098 188.207 81.0163 187.792 80.853C187.381 80.685 187.024 80.4423 186.721 80.125C186.422 79.803 186.189 79.4063 186.021 78.935C185.853 78.4637 185.769 77.9223 185.769 77.311C185.769 76.8163 185.843 76.3543 185.993 75.925C186.147 75.4957 186.366 75.1247 186.651 74.812C186.935 74.4947 187.283 74.2473 187.694 74.07C188.104 73.888 188.566 73.797 189.08 73.797C189.504 73.797 189.896 73.8693 190.256 74.014C190.62 74.154 190.932 74.3593 191.194 74.63C191.46 74.896 191.667 75.2273 191.817 75.624C191.966 76.016 192.041 76.464 192.041 76.968C192.041 77.164 192.02 77.2947 191.978 77.36C191.936 77.4253 191.856 77.458 191.74 77.458H187.001C187.015 77.906 187.075 78.2957 187.183 78.627C187.295 78.9583 187.449 79.236 187.645 79.46C187.841 79.6793 188.074 79.845 188.345 79.957C188.615 80.0643 188.919 80.118 189.255 80.118C189.567 80.118 189.836 80.083 190.06 80.013C190.288 79.9383 190.484 79.859 190.648 79.775C190.811 79.691 190.946 79.614 191.054 79.544C191.166 79.4693 191.261 79.432 191.341 79.432C191.443 79.432 191.523 79.4717 191.579 79.551L191.929 80.006ZM198.469 73.909V81H197.223V73.909H198.469ZM198.735 71.683C198.735 71.8043 198.709 71.9187 198.658 72.026C198.611 72.1287 198.546 72.222 198.462 72.306C198.383 72.3853 198.287 72.4483 198.175 72.495C198.068 72.5417 197.953 72.565 197.832 72.565C197.711 72.565 197.596 72.5417 197.489 72.495C197.386 72.4483 197.295 72.3853 197.216 72.306C197.137 72.222 197.074 72.1287 197.027 72.026C196.98 71.9187 196.957 71.8043 196.957 71.683C196.957 71.5617 196.98 71.4473 197.027 71.34C197.074 71.228 197.137 71.1323 197.216 71.053C197.295 70.969 197.386 70.9037 197.489 70.857C197.596 70.8103 197.711 70.787 197.832 70.787C197.953 70.787 198.068 70.8103 198.175 70.857C198.287 70.9037 198.383 70.969 198.462 71.053C198.546 71.1323 198.611 71.228 198.658 71.34C198.709 71.4473 198.735 71.5617 198.735 71.683ZM202.693 81.112C202.133 81.112 201.702 80.9557 201.398 80.643C201.1 80.3303 200.95 79.88 200.95 79.292V74.952H200.096C200.022 74.952 199.959 74.931 199.907 74.889C199.856 74.8423 199.83 74.7723 199.83 74.679V74.182L200.992 74.035L201.279 71.844C201.293 71.774 201.324 71.718 201.37 71.676C201.422 71.6293 201.487 71.606 201.566 71.606H202.196V74.049H204.247V74.952H202.196V79.208C202.196 79.5067 202.269 79.7283 202.413 79.873C202.558 80.0177 202.745 80.09 202.973 80.09C203.104 80.09 203.216 80.0737 203.309 80.041C203.407 80.0037 203.491 79.964 203.561 79.922C203.631 79.88 203.69 79.8427 203.736 79.81C203.788 79.7727 203.832 79.754 203.869 79.754C203.935 79.754 203.993 79.7937 204.044 79.873L204.408 80.468C204.194 80.6687 203.935 80.8273 203.631 80.944C203.328 81.056 203.015 81.112 202.693 81.112ZM210.239 76.681C210.239 76.3917 210.197 76.128 210.113 75.89C210.034 75.6473 209.915 75.4397 209.756 75.267C209.602 75.0897 209.413 74.9543 209.189 74.861C208.965 74.763 208.711 74.714 208.426 74.714C207.829 74.714 207.355 74.889 207.005 75.239C206.66 75.5843 206.445 76.065 206.361 76.681H210.239ZM211.247 80.006C211.093 80.1927 210.909 80.356 210.694 80.496C210.479 80.6313 210.248 80.7433 210.001 80.832C209.758 80.9207 209.506 80.986 209.245 81.028C208.984 81.0747 208.725 81.098 208.468 81.098C207.978 81.098 207.525 81.0163 207.11 80.853C206.699 80.685 206.342 80.4423 206.039 80.125C205.74 79.803 205.507 79.4063 205.339 78.935C205.171 78.4637 205.087 77.9223 205.087 77.311C205.087 76.8163 205.162 76.3543 205.311 75.925C205.465 75.4957 205.684 75.1247 205.969 74.812C206.254 74.4947 206.601 74.2473 207.012 74.07C207.423 73.888 207.885 73.797 208.398 73.797C208.823 73.797 209.215 73.8693 209.574 74.014C209.938 74.154 210.251 74.3593 210.512 74.63C210.778 74.896 210.986 75.2273 211.135 75.624C211.284 76.016 211.359 76.464 211.359 76.968C211.359 77.164 211.338 77.2947 211.296 77.36C211.254 77.4253 211.175 77.458 211.058 77.458H206.319C206.333 77.906 206.394 78.2957 206.501 78.627C206.613 78.9583 206.767 79.236 206.963 79.46C207.159 79.6793 207.392 79.845 207.663 79.957C207.934 80.0643 208.237 80.118 208.573 80.118C208.886 80.118 209.154 80.083 209.378 80.013C209.607 79.9383 209.803 79.859 209.966 79.775C210.129 79.691 210.265 79.614 210.372 79.544C210.484 79.4693 210.58 79.432 210.659 79.432C210.762 79.432 210.841 79.4717 210.897 79.551L211.247 80.006ZM212.889 81V73.909H213.638C213.816 73.909 213.925 73.9953 213.967 74.168L214.058 74.896C214.32 74.574 214.614 74.3103 214.94 74.105C215.267 73.8997 215.645 73.797 216.074 73.797C216.55 73.797 216.935 73.93 217.229 74.196C217.528 74.462 217.743 74.8213 217.873 75.274C217.976 75.0173 218.107 74.7957 218.265 74.609C218.429 74.4223 218.611 74.2683 218.811 74.147C219.012 74.0257 219.224 73.937 219.448 73.881C219.677 73.825 219.908 73.797 220.141 73.797C220.515 73.797 220.846 73.8577 221.135 73.979C221.429 74.0957 221.677 74.2683 221.877 74.497C222.083 74.7257 222.239 75.008 222.346 75.344C222.454 75.6753 222.507 76.0557 222.507 76.485V81H221.254V76.485C221.254 75.9297 221.133 75.5097 220.89 75.225C220.648 74.9357 220.298 74.791 219.84 74.791C219.635 74.791 219.439 74.8283 219.252 74.903C219.07 74.973 218.909 75.078 218.769 75.218C218.629 75.358 218.517 75.5353 218.433 75.75C218.354 75.96 218.314 76.205 218.314 76.485V81H217.061V76.485C217.061 75.9157 216.947 75.491 216.718 75.211C216.49 74.931 216.156 74.791 215.717 74.791C215.409 74.791 215.125 74.875 214.863 75.043C214.602 75.2063 214.362 75.4303 214.142 75.715V81H212.889ZM228.531 75.078C228.475 75.1807 228.389 75.232 228.272 75.232C228.202 75.232 228.123 75.2063 228.034 75.155C227.945 75.1037 227.836 75.0477 227.705 74.987C227.579 74.9217 227.427 74.8633 227.25 74.812C227.073 74.756 226.863 74.728 226.62 74.728C226.41 74.728 226.221 74.756 226.053 74.812C225.885 74.8633 225.74 74.9357 225.619 75.029C225.502 75.1223 225.411 75.232 225.346 75.358C225.285 75.4793 225.255 75.6123 225.255 75.757C225.255 75.939 225.306 76.0907 225.409 76.212C225.516 76.3333 225.656 76.4383 225.829 76.527C226.002 76.6157 226.198 76.695 226.417 76.765C226.636 76.8303 226.86 76.9027 227.089 76.982C227.322 77.0567 227.549 77.1407 227.768 77.234C227.987 77.3273 228.183 77.444 228.356 77.584C228.529 77.724 228.666 77.8967 228.769 78.102C228.876 78.3027 228.93 78.5453 228.93 78.83C228.93 79.1567 228.872 79.46 228.755 79.74C228.638 80.0153 228.466 80.2557 228.237 80.461C228.008 80.6617 227.728 80.8203 227.397 80.937C227.066 81.0537 226.683 81.112 226.249 81.112C225.754 81.112 225.306 81.0327 224.905 80.874C224.504 80.7107 224.163 80.503 223.883 80.251L224.177 79.775C224.214 79.7143 224.259 79.6677 224.31 79.635C224.361 79.6023 224.427 79.586 224.506 79.586C224.59 79.586 224.679 79.6187 224.772 79.684C224.865 79.7493 224.977 79.8217 225.108 79.901C225.243 79.9803 225.407 80.0527 225.598 80.118C225.789 80.1833 226.027 80.216 226.312 80.216C226.555 80.216 226.767 80.1857 226.949 80.125C227.131 80.0597 227.283 79.9733 227.404 79.866C227.525 79.7587 227.614 79.635 227.67 79.495C227.731 79.355 227.761 79.2057 227.761 79.047C227.761 78.851 227.707 78.69 227.6 78.564C227.497 78.4333 227.36 78.3237 227.187 78.235C227.014 78.1417 226.816 78.0623 226.592 77.997C226.373 77.927 226.146 77.8547 225.913 77.78C225.684 77.7053 225.458 77.6213 225.234 77.528C225.015 77.43 224.819 77.3087 224.646 77.164C224.473 77.0193 224.333 76.842 224.226 76.632C224.123 76.4173 224.072 76.1583 224.072 75.855C224.072 75.5843 224.128 75.3253 224.24 75.078C224.352 74.826 224.515 74.6067 224.73 74.42C224.945 74.2287 225.208 74.077 225.521 73.965C225.834 73.853 226.191 73.797 226.592 73.797C227.059 73.797 227.476 73.8717 227.845 74.021C228.218 74.1657 228.54 74.3663 228.811 74.623L228.531 75.078ZM236.434 76.058C235.939 76.3193 235.566 76.6367 235.314 77.01C235.066 77.3833 234.943 77.7893 234.943 78.228C234.943 78.5313 234.999 78.7997 235.111 79.033C235.223 79.2617 235.37 79.4553 235.552 79.614C235.734 79.7727 235.941 79.894 236.175 79.978C236.408 80.0573 236.646 80.097 236.889 80.097C237.411 80.097 237.88 80.0013 238.296 79.81C238.716 79.6187 239.082 79.362 239.395 79.04L236.434 76.058ZM242.902 81H241.691C241.555 81 241.446 80.9837 241.362 80.951C241.278 80.9183 241.187 80.8507 241.089 80.748L240.074 79.726C239.635 80.1507 239.129 80.489 238.555 80.741C237.985 80.9883 237.358 81.112 236.672 81.112C236.298 81.112 235.932 81.049 235.573 80.923C235.218 80.797 234.898 80.615 234.614 80.377C234.329 80.1343 234.1 79.8403 233.928 79.495C233.755 79.1497 233.669 78.76 233.669 78.326C233.669 77.9993 233.722 77.6913 233.83 77.402C233.942 77.108 234.096 76.8373 234.292 76.59C234.488 76.3427 234.719 76.121 234.985 75.925C235.251 75.729 235.542 75.561 235.86 75.421C235.575 75.057 235.365 74.707 235.23 74.371C235.094 74.0303 235.027 73.678 235.027 73.314C235.027 72.9733 235.087 72.6537 235.209 72.355C235.335 72.0563 235.514 71.7973 235.748 71.578C235.981 71.354 236.263 71.179 236.595 71.053C236.931 70.9223 237.306 70.857 237.722 70.857C238.09 70.857 238.426 70.9177 238.73 71.039C239.033 71.1557 239.294 71.312 239.514 71.508C239.733 71.704 239.906 71.9327 240.032 72.194C240.162 72.4507 240.237 72.719 240.256 72.999L239.479 73.153C239.325 73.1903 239.21 73.118 239.136 72.936C239.103 72.8147 239.049 72.6887 238.975 72.558C238.905 72.4273 238.811 72.3083 238.695 72.201C238.583 72.0937 238.445 72.005 238.282 71.935C238.123 71.865 237.936 71.83 237.722 71.83C237.488 71.83 237.276 71.8673 237.085 71.942C236.898 72.0167 236.737 72.1217 236.602 72.257C236.471 72.3877 236.371 72.544 236.301 72.726C236.231 72.9033 236.196 73.097 236.196 73.307C236.196 73.4703 236.214 73.6267 236.252 73.776C236.289 73.9253 236.347 74.077 236.427 74.231C236.511 74.385 236.616 74.5413 236.742 74.7C236.868 74.8587 237.019 75.0267 237.197 75.204L240.081 78.137C240.258 77.8197 240.4 77.4907 240.508 77.15C240.615 76.8047 240.685 76.4617 240.718 76.121C240.727 76.0323 240.755 75.9623 240.802 75.911C240.848 75.8597 240.914 75.834 240.998 75.834H241.761C241.756 76.3707 241.672 76.898 241.509 77.416C241.345 77.9293 241.11 78.4123 240.802 78.865L242.902 81ZM248.905 73.909V81H247.659V73.909H248.905ZM249.171 71.683C249.171 71.8043 249.145 71.9187 249.094 72.026C249.047 72.1287 248.982 72.222 248.898 72.306C248.818 72.3853 248.723 72.4483 248.611 72.495C248.503 72.5417 248.389 72.565 248.268 72.565C248.146 72.565 248.032 72.5417 247.925 72.495C247.822 72.4483 247.731 72.3853 247.652 72.306C247.572 72.222 247.509 72.1287 247.463 72.026C247.416 71.9187 247.393 71.8043 247.393 71.683C247.393 71.5617 247.416 71.4473 247.463 71.34C247.509 71.228 247.572 71.1323 247.652 71.053C247.731 70.969 247.822 70.9037 247.925 70.857C248.032 70.8103 248.146 70.787 248.268 70.787C248.389 70.787 248.503 70.8103 248.611 70.857C248.723 70.9037 248.818 70.969 248.898 71.053C248.982 71.1323 249.047 71.228 249.094 71.34C249.145 71.4473 249.171 71.5617 249.171 71.683ZM250.952 81V73.909H251.701C251.878 73.909 251.988 73.9953 252.03 74.168L252.121 74.896C252.382 74.574 252.676 74.3103 253.003 74.105C253.33 73.8997 253.708 73.797 254.137 73.797C254.613 73.797 254.998 73.93 255.292 74.196C255.591 74.462 255.805 74.8213 255.936 75.274C256.039 75.0173 256.169 74.7957 256.328 74.609C256.491 74.4223 256.673 74.2683 256.874 74.147C257.075 74.0257 257.287 73.937 257.511 73.881C257.74 73.825 257.971 73.797 258.204 73.797C258.577 73.797 258.909 73.8577 259.198 73.979C259.492 74.0957 259.739 74.2683 259.94 74.497C260.145 74.7257 260.302 75.008 260.409 75.344C260.516 75.6753 260.57 76.0557 260.57 76.485V81H259.317V76.485C259.317 75.9297 259.196 75.5097 258.953 75.225C258.71 74.9357 258.36 74.791 257.903 74.791C257.698 74.791 257.502 74.8283 257.315 74.903C257.133 74.973 256.972 75.078 256.832 75.218C256.692 75.358 256.58 75.5353 256.496 75.75C256.417 75.96 256.377 76.205 256.377 76.485V81H255.124V76.485C255.124 75.9157 255.01 75.491 254.781 75.211C254.552 74.931 254.219 74.791 253.78 74.791C253.472 74.791 253.187 74.875 252.926 75.043C252.665 75.2063 252.424 75.4303 252.205 75.715V81H250.952ZM263.717 79.292C263.945 79.6 264.195 79.817 264.466 79.943C264.736 80.069 265.04 80.132 265.376 80.132C266.038 80.132 266.547 79.8963 266.902 79.425C267.256 78.9537 267.434 78.2817 267.434 77.409C267.434 76.947 267.392 76.5503 267.308 76.219C267.228 75.8877 267.112 75.617 266.958 75.407C266.804 75.1923 266.615 75.036 266.391 74.938C266.167 74.84 265.912 74.791 265.628 74.791C265.222 74.791 264.865 74.8843 264.557 75.071C264.253 75.2577 263.973 75.5213 263.717 75.862V79.292ZM263.654 75.008C263.952 74.6393 264.298 74.343 264.69 74.119C265.082 73.895 265.53 73.783 266.034 73.783C266.444 73.783 266.815 73.8623 267.147 74.021C267.478 74.175 267.76 74.406 267.994 74.714C268.227 75.0173 268.407 75.3953 268.533 75.848C268.659 76.3007 268.722 76.821 268.722 77.409C268.722 77.9317 268.652 78.4193 268.512 78.872C268.372 79.32 268.169 79.7097 267.903 80.041C267.641 80.3677 267.319 80.6267 266.937 80.818C266.559 81.0047 266.132 81.098 265.656 81.098C265.222 81.098 264.848 81.0257 264.536 80.881C264.228 80.7317 263.955 80.5263 263.717 80.265V83.401H262.464V73.909H263.213C263.39 73.909 263.5 73.9953 263.542 74.168L263.654 75.008ZM273.3 73.797C273.818 73.797 274.285 73.8833 274.7 74.056C275.116 74.2287 275.47 74.4737 275.764 74.791C276.058 75.1083 276.282 75.4933 276.436 75.946C276.595 76.394 276.674 76.8957 276.674 77.451C276.674 78.011 276.595 78.515 276.436 78.963C276.282 79.411 276.058 79.7937 275.764 80.111C275.47 80.4283 275.116 80.6733 274.7 80.846C274.285 81.014 273.818 81.098 273.3 81.098C272.778 81.098 272.306 81.014 271.886 80.846C271.471 80.6733 271.116 80.4283 270.822 80.111C270.528 79.7937 270.302 79.411 270.143 78.963C269.989 78.515 269.912 78.011 269.912 77.451C269.912 76.8957 269.989 76.394 270.143 75.946C270.302 75.4933 270.528 75.1083 270.822 74.791C271.116 74.4737 271.471 74.2287 271.886 74.056C272.306 73.8833 272.778 73.797 273.3 73.797ZM273.3 80.125C274 80.125 274.523 79.8917 274.868 79.425C275.214 78.9537 275.386 78.298 275.386 77.458C275.386 76.6133 275.214 75.9553 274.868 75.484C274.523 75.0127 274 74.777 273.3 74.777C272.946 74.777 272.635 74.8377 272.369 74.959C272.108 75.0803 271.889 75.2553 271.711 75.484C271.539 75.7127 271.408 75.995 271.319 76.331C271.235 76.6623 271.193 77.038 271.193 77.458C271.193 78.298 271.366 78.9537 271.711 79.425C272.061 79.8917 272.591 80.125 273.3 80.125ZM279.438 75.33C279.662 74.8447 279.937 74.4667 280.264 74.196C280.59 73.9207 280.989 73.783 281.461 73.783C281.61 73.783 281.752 73.7993 281.888 73.832C282.028 73.8647 282.151 73.916 282.259 73.986L282.168 74.917C282.14 75.0337 282.07 75.092 281.958 75.092C281.892 75.092 281.797 75.078 281.671 75.05C281.545 75.022 281.402 75.008 281.244 75.008C281.02 75.008 280.819 75.0407 280.642 75.106C280.469 75.1713 280.313 75.2693 280.173 75.4C280.037 75.526 279.914 75.6847 279.802 75.876C279.694 76.0627 279.596 76.2773 279.508 76.52V81H278.255V73.909H278.969C279.104 73.909 279.197 73.9347 279.249 73.986C279.3 74.0373 279.335 74.126 279.354 74.252L279.438 75.33ZM285.531 81.112C284.971 81.112 284.54 80.9557 284.236 80.643C283.938 80.3303 283.788 79.88 283.788 79.292V74.952H282.934C282.86 74.952 282.797 74.931 282.745 74.889C282.694 74.8423 282.668 74.7723 282.668 74.679V74.182L283.83 74.035L284.117 71.844C284.131 71.774 284.162 71.718 284.208 71.676C284.26 71.6293 284.325 71.606 284.404 71.606H285.034V74.049H287.085V74.952H285.034V79.208C285.034 79.5067 285.107 79.7283 285.251 79.873C285.396 80.0177 285.583 80.09 285.811 80.09C285.942 80.09 286.054 80.0737 286.147 80.041C286.245 80.0037 286.329 79.964 286.399 79.922C286.469 79.88 286.528 79.8427 286.574 79.81C286.626 79.7727 286.67 79.754 286.707 79.754C286.773 79.754 286.831 79.7937 286.882 79.873L287.246 80.468C287.032 80.6687 286.773 80.8273 286.469 80.944C286.166 81.056 285.853 81.112 285.531 81.112ZM294.131 81.112C293.571 81.112 293.139 80.9557 292.836 80.643C292.537 80.3303 292.388 79.88 292.388 79.292V74.952H291.534C291.459 74.952 291.396 74.931 291.345 74.889C291.293 74.8423 291.268 74.7723 291.268 74.679V74.182L292.43 74.035L292.717 71.844C292.731 71.774 292.761 71.718 292.808 71.676C292.859 71.6293 292.924 71.606 293.004 71.606H293.634V74.049H295.685V74.952H293.634V79.208C293.634 79.5067 293.706 79.7283 293.851 79.873C293.995 80.0177 294.182 80.09 294.411 80.09C294.541 80.09 294.653 80.0737 294.747 80.041C294.845 80.0037 294.929 79.964 294.999 79.922C295.069 79.88 295.127 79.8427 295.174 79.81C295.225 79.7727 295.269 79.754 295.307 79.754C295.372 79.754 295.43 79.7937 295.482 79.873L295.846 80.468C295.631 80.6687 295.372 80.8273 295.069 80.944C294.765 81.056 294.453 81.112 294.131 81.112ZM299.919 73.797C300.437 73.797 300.904 73.8833 301.319 74.056C301.735 74.2287 302.089 74.4737 302.383 74.791C302.677 75.1083 302.901 75.4933 303.055 75.946C303.214 76.394 303.293 76.8957 303.293 77.451C303.293 78.011 303.214 78.515 303.055 78.963C302.901 79.411 302.677 79.7937 302.383 80.111C302.089 80.4283 301.735 80.6733 301.319 80.846C300.904 81.014 300.437 81.098 299.919 81.098C299.397 81.098 298.925 81.014 298.505 80.846C298.09 80.6733 297.735 80.4283 297.441 80.111C297.147 79.7937 296.921 79.411 296.762 78.963C296.608 78.515 296.531 78.011 296.531 77.451C296.531 76.8957 296.608 76.394 296.762 75.946C296.921 75.4933 297.147 75.1083 297.441 74.791C297.735 74.4737 298.09 74.2287 298.505 74.056C298.925 73.8833 299.397 73.797 299.919 73.797ZM299.919 80.125C300.619 80.125 301.142 79.8917 301.487 79.425C301.833 78.9537 302.005 78.298 302.005 77.458C302.005 76.6133 301.833 75.9553 301.487 75.484C301.142 75.0127 300.619 74.777 299.919 74.777C299.565 74.777 299.254 74.8377 298.988 74.959C298.727 75.0803 298.508 75.2553 298.33 75.484C298.158 75.7127 298.027 75.995 297.938 76.331C297.854 76.6623 297.812 77.038 297.812 77.458C297.812 78.298 297.985 78.9537 298.33 79.425C298.68 79.8917 299.21 80.125 299.919 80.125ZM307.304 77.535C307.556 77.535 307.777 77.5 307.969 77.43C308.16 77.36 308.321 77.262 308.452 77.136C308.582 77.01 308.68 76.8607 308.746 76.688C308.811 76.5107 308.844 76.317 308.844 76.107C308.844 75.673 308.711 75.3277 308.445 75.071C308.183 74.8143 307.803 74.686 307.304 74.686C306.8 74.686 306.415 74.8143 306.149 75.071C305.887 75.3277 305.757 75.673 305.757 76.107C305.757 76.317 305.789 76.5107 305.855 76.688C305.925 76.8607 306.025 77.01 306.156 77.136C306.286 77.262 306.447 77.36 306.639 77.43C306.83 77.5 307.052 77.535 307.304 77.535ZM309.551 81.385C309.551 81.2123 309.502 81.0723 309.404 80.965C309.306 80.8577 309.173 80.7737 309.005 80.713C308.841 80.6523 308.65 80.6103 308.431 80.587C308.211 80.559 307.978 80.538 307.731 80.524C307.488 80.51 307.241 80.496 306.989 80.482C306.737 80.468 306.494 80.4447 306.261 80.412C305.999 80.5333 305.785 80.6873 305.617 80.874C305.453 81.056 305.372 81.2707 305.372 81.518C305.372 81.6767 305.411 81.8237 305.491 81.959C305.575 82.099 305.701 82.218 305.869 82.316C306.037 82.4187 306.247 82.498 306.499 82.554C306.755 82.6147 307.056 82.645 307.402 82.645C307.738 82.645 308.039 82.6147 308.305 82.554C308.571 82.4933 308.795 82.407 308.977 82.295C309.163 82.183 309.306 82.05 309.404 81.896C309.502 81.742 309.551 81.5717 309.551 81.385ZM310.818 74.189V74.651C310.818 74.805 310.72 74.903 310.524 74.945L309.719 75.05C309.877 75.358 309.957 75.6987 309.957 76.072C309.957 76.4173 309.889 76.7323 309.754 77.017C309.623 77.297 309.441 77.5373 309.208 77.738C308.974 77.9387 308.694 78.0927 308.368 78.2C308.041 78.3073 307.686 78.361 307.304 78.361C306.972 78.361 306.66 78.3213 306.366 78.242C306.216 78.3353 306.102 78.4357 306.023 78.543C305.943 78.6457 305.904 78.7507 305.904 78.858C305.904 79.026 305.971 79.1543 306.107 79.243C306.247 79.327 306.429 79.3877 306.653 79.425C306.877 79.4623 307.131 79.4857 307.416 79.495C307.705 79.5043 307.999 79.5207 308.298 79.544C308.601 79.5627 308.895 79.5977 309.18 79.649C309.469 79.7003 309.726 79.7843 309.95 79.901C310.174 80.0177 310.353 80.1787 310.489 80.384C310.629 80.5893 310.699 80.8553 310.699 81.182C310.699 81.4853 310.622 81.7793 310.468 82.064C310.318 82.3487 310.101 82.6007 309.817 82.82C309.532 83.044 309.182 83.2213 308.767 83.352C308.356 83.4873 307.892 83.555 307.374 83.555C306.856 83.555 306.403 83.5037 306.016 83.401C305.628 83.2983 305.306 83.1607 305.05 82.988C304.793 82.8153 304.599 82.6147 304.469 82.386C304.343 82.162 304.28 81.9263 304.28 81.679C304.28 81.329 304.389 81.0327 304.609 80.79C304.828 80.5473 305.129 80.3537 305.512 80.209C305.302 80.1157 305.134 79.992 305.008 79.838C304.886 79.6793 304.826 79.467 304.826 79.201C304.826 79.0983 304.844 78.9933 304.882 78.886C304.919 78.774 304.975 78.6643 305.05 78.557C305.129 78.445 305.225 78.34 305.337 78.242C305.449 78.144 305.579 78.0577 305.729 77.983C305.379 77.787 305.106 77.528 304.91 77.206C304.714 76.8793 304.616 76.5013 304.616 76.072C304.616 75.7267 304.681 75.414 304.812 75.134C304.947 74.8493 305.134 74.609 305.372 74.413C305.61 74.2123 305.892 74.0583 306.219 73.951C306.55 73.8437 306.912 73.79 307.304 73.79C307.612 73.79 307.899 73.825 308.165 73.895C308.431 73.9603 308.673 74.0583 308.893 74.189H310.818ZM316.743 76.681C316.743 76.3917 316.701 76.128 316.617 75.89C316.537 75.6473 316.418 75.4397 316.26 75.267C316.106 75.0897 315.917 74.9543 315.693 74.861C315.469 74.763 315.214 74.714 314.93 74.714C314.332 74.714 313.859 74.889 313.509 75.239C313.163 75.5843 312.949 76.065 312.865 76.681H316.743ZM317.751 80.006C317.597 80.1927 317.412 80.356 317.198 80.496C316.983 80.6313 316.752 80.7433 316.505 80.832C316.262 80.9207 316.01 80.986 315.749 81.028C315.487 81.0747 315.228 81.098 314.972 81.098C314.482 81.098 314.029 81.0163 313.614 80.853C313.203 80.685 312.846 80.4423 312.543 80.125C312.244 79.803 312.011 79.4063 311.843 78.935C311.675 78.4637 311.591 77.9223 311.591 77.311C311.591 76.8163 311.665 76.3543 311.815 75.925C311.969 75.4957 312.188 75.1247 312.473 74.812C312.757 74.4947 313.105 74.2473 313.516 74.07C313.926 73.888 314.388 73.797 314.902 73.797C315.326 73.797 315.718 73.8693 316.078 74.014C316.442 74.154 316.754 74.3593 317.016 74.63C317.282 74.896 317.489 75.2273 317.639 75.624C317.788 76.016 317.863 76.464 317.863 76.968C317.863 77.164 317.842 77.2947 317.8 77.36C317.758 77.4253 317.678 77.458 317.562 77.458H312.823C312.837 77.906 312.897 78.2957 313.005 78.627C313.117 78.9583 313.271 79.236 313.467 79.46C313.663 79.6793 313.896 79.845 314.167 79.957C314.437 80.0643 314.741 80.118 315.077 80.118C315.389 80.118 315.658 80.083 315.882 80.013C316.11 79.9383 316.306 79.859 316.47 79.775C316.633 79.691 316.768 79.614 316.876 79.544C316.988 79.4693 317.083 79.432 317.163 79.432C317.265 79.432 317.345 79.4717 317.401 79.551L317.751 80.006ZM321.516 81.112C320.956 81.112 320.524 80.9557 320.221 80.643C319.922 80.3303 319.773 79.88 319.773 79.292V74.952H318.919C318.844 74.952 318.781 74.931 318.73 74.889C318.678 74.8423 318.653 74.7723 318.653 74.679V74.182L319.815 74.035L320.102 71.844C320.116 71.774 320.146 71.718 320.193 71.676C320.244 71.6293 320.309 71.606 320.389 71.606H321.019V74.049H323.07V74.952H321.019V79.208C321.019 79.5067 321.091 79.7283 321.236 79.873C321.38 80.0177 321.567 80.09 321.796 80.09C321.926 80.09 322.038 80.0737 322.132 80.041C322.23 80.0037 322.314 79.964 322.384 79.922C322.454 79.88 322.512 79.8427 322.559 79.81C322.61 79.7727 322.654 79.754 322.692 79.754C322.757 79.754 322.815 79.7937 322.867 79.873L323.231 80.468C323.016 80.6687 322.757 80.8273 322.454 80.944C322.15 81.056 321.838 81.112 321.516 81.112ZM325.609 74.854C325.912 74.532 326.248 74.2753 326.617 74.084C326.986 73.8927 327.41 73.797 327.891 73.797C328.278 73.797 328.619 73.8623 328.913 73.993C329.212 74.119 329.459 74.301 329.655 74.539C329.856 74.7723 330.007 75.0547 330.11 75.386C330.213 75.7173 330.264 76.0837 330.264 76.485V81H329.011V76.485C329.011 75.9483 328.887 75.533 328.64 75.239C328.397 74.9403 328.026 74.791 327.527 74.791C327.158 74.791 326.813 74.8797 326.491 75.057C326.174 75.2343 325.88 75.4747 325.609 75.778V81H324.356V70.689H325.609V74.854ZM336.909 76.681C336.909 76.3917 336.867 76.128 336.783 75.89C336.703 75.6473 336.584 75.4397 336.426 75.267C336.272 75.0897 336.083 74.9543 335.859 74.861C335.635 74.763 335.38 74.714 335.096 74.714C334.498 74.714 334.025 74.889 333.675 75.239C333.329 75.5843 333.115 76.065 333.031 76.681H336.909ZM337.917 80.006C337.763 80.1927 337.578 80.356 337.364 80.496C337.149 80.6313 336.918 80.7433 336.671 80.832C336.428 80.9207 336.176 80.986 335.915 81.028C335.653 81.0747 335.394 81.098 335.138 81.098C334.648 81.098 334.195 81.0163 333.78 80.853C333.369 80.685 333.012 80.4423 332.709 80.125C332.41 79.803 332.177 79.4063 332.009 78.935C331.841 78.4637 331.757 77.9223 331.757 77.311C331.757 76.8163 331.831 76.3543 331.981 75.925C332.135 75.4957 332.354 75.1247 332.639 74.812C332.923 74.4947 333.271 74.2473 333.682 74.07C334.092 73.888 334.554 73.797 335.068 73.797C335.492 73.797 335.884 73.8693 336.244 74.014C336.608 74.154 336.92 74.3593 337.182 74.63C337.448 74.896 337.655 75.2273 337.805 75.624C337.954 76.016 338.029 76.464 338.029 76.968C338.029 77.164 338.008 77.2947 337.966 77.36C337.924 77.4253 337.844 77.458 337.728 77.458H332.989C333.003 77.906 333.063 78.2957 333.171 78.627C333.283 78.9583 333.437 79.236 333.633 79.46C333.829 79.6793 334.062 79.845 334.333 79.957C334.603 80.0643 334.907 80.118 335.243 80.118C335.555 80.118 335.824 80.083 336.048 80.013C336.276 79.9383 336.472 79.859 336.636 79.775C336.799 79.691 336.934 79.614 337.042 79.544C337.154 79.4693 337.249 79.432 337.329 79.432C337.431 79.432 337.511 79.4717 337.567 79.551L337.917 80.006ZM340.742 75.33C340.966 74.8447 341.242 74.4667 341.568 74.196C341.895 73.9207 342.294 73.783 342.765 73.783C342.915 73.783 343.057 73.7993 343.192 73.832C343.332 73.8647 343.456 73.916 343.563 73.986L343.472 74.917C343.444 75.0337 343.374 75.092 343.262 75.092C343.197 75.092 343.101 75.078 342.975 75.05C342.849 75.022 342.707 75.008 342.548 75.008C342.324 75.008 342.124 75.0407 341.946 75.106C341.774 75.1713 341.617 75.2693 341.477 75.4C341.342 75.526 341.218 75.6847 341.106 75.876C340.999 76.0627 340.901 76.2773 340.812 76.52V81H339.559V73.909H340.273C340.409 73.909 340.502 73.9347 340.553 73.986C340.605 74.0373 340.64 74.126 340.658 74.252L340.742 75.33Z" fill="#474747"/>
</g>
<defs>
<linearGradient id="paint0_linear_3364_149821" x1="663.233" y1="-40.4819" x2="656.749" y2="121.173" gradientUnits="userSpaceOnUse">
<stop stop-color="#20EE76"/>
<stop offset="0.194533" stop-color="#A5DFBE"/>
<stop offset="1" stop-color="#F7F8F7"/>
</linearGradient>
<clipPath id="clip0_3364_149821">
<rect width="1255" height="120" rx="8" fill="white"/>
</clipPath>
</defs>
</svg>
