<svg width="98" height="60" viewBox="0 0 98 60" fill="none" xmlns="http://www.w3.org/2000/svg">
<path opacity="0.8" fill-rule="evenodd" clip-rule="evenodd" d="M19.9115 11.3947C20.9111 8.25067 21.8413 6.29317 22.7007 5.52142C25.0806 3.38542 28.3711 4.54792 29.0707 4.71442C31.5283 5.30092 30.7292 1.44142 32.8377 0.656923C34.2429 0.134173 35.3985 0.773173 36.3054 2.57392C37.1082 0.893923 38.3317 0.124423 39.9759 0.261673C42.4424 0.469423 43.3056 8.75767 46.6949 6.94342C50.0849 5.12842 54.2409 4.71367 56.0162 7.41067C56.3999 7.99417 56.5469 7.08892 59.1567 3.99817C61.7665 0.906673 64.3688 -0.455327 69.7076 1.34467C72.1349 2.16217 74.1311 4.37842 75.6984 7.99267C75.6984 13.1512 79.5128 16.2052 87.1402 17.1524C98.5829 18.5737 89.7011 30.8129 75.6984 34.3972C61.6949 37.9822 29.4552 39.9172 11.9599 30.8602C0.296411 24.8234 2.94693 18.3344 19.9107 11.3947H19.9115Z" fill="url(#paint0_linear_2920_53866)"/>
<path d="M48.6057 56.9787C60.2577 56.9787 69.7036 54.8035 69.7036 52.1202C69.7036 49.4369 60.2577 47.2617 48.6057 47.2617C36.9537 47.2617 27.5078 49.4369 27.5078 52.1202C27.5078 54.8035 36.9537 56.9787 48.6057 56.9787Z" fill="url(#paint1_linear_2920_53866)"/>
<path opacity="0.675" fill-rule="evenodd" clip-rule="evenodd" d="M84.2229 58.1837C68.3597 62.1422 14.2132 57.6144 8.45006 55.5467C5.645 54.5394 3.1166 52.6457 0.865612 49.8647C0.613677 49.5537 0.455319 49.1782 0.408839 48.7815C0.36236 48.3848 0.429654 47.9831 0.602947 47.6228C0.77624 47.2625 1.04846 46.9584 1.38814 46.7455C1.72783 46.5327 2.12112 46.4198 2.52257 46.4199H97.1408C99.1046 51.6234 94.7986 55.5444 84.2229 58.1837Z" fill="url(#paint2_linear_2920_53866)"/>
<path d="M64.792 39.1015L57.577 30.7075C57.4063 30.5072 57.1943 30.346 56.9553 30.2346C56.7163 30.1233 56.456 30.0646 56.1922 30.0625H40.678C40.1458 30.0625 39.64 30.3055 39.2932 30.7075L32.0781 39.1015V43.7095H64.792V39.1015Z" fill="#025AE0"/>
<path d="M64.792 39.1015L57.577 30.7075C57.4063 30.5072 57.1943 30.346 56.9553 30.2346C56.7163 30.1233 56.456 30.0646 56.1922 30.0625H40.678C40.1458 30.0625 39.64 30.3055 39.2932 30.7075L32.0781 39.1015V43.7095H64.792V39.1015Z" fill="white" fill-opacity="0.7"/>
<path d="M62.75 43.8782L56.4351 36.5672C56.2824 36.3946 56.0942 36.2567 55.8832 36.1629C55.6722 36.0691 55.4434 36.0215 55.2123 36.0235H41.6627C41.1976 36.0235 40.743 36.2155 40.44 36.5672L34.125 43.8782V47.8937H62.75V43.8782Z" fill="#025AE0"/>
<path d="M62.75 43.8782L56.4351 36.5672C56.2824 36.3946 56.0942 36.2567 55.8832 36.1629C55.6722 36.0691 55.4434 36.0215 55.2123 36.0235H41.6627C41.1976 36.0235 40.743 36.2155 40.44 36.5672L34.125 43.8782V47.8937H62.75V43.8782Z" fill="white" fill-opacity="0.95"/>
<path d="M64.792 48.9908C64.792 49.6306 64.5025 50.2058 64.0457 50.5913L63.953 50.6663C63.5908 50.9395 63.1486 51.087 62.6941 51.0863H34.1768C33.919 51.0863 33.6725 51.0398 33.4448 50.9543L33.3318 50.9093C32.9587 50.7442 32.6418 50.475 32.4193 50.1344C32.1968 49.7938 32.0783 49.3963 32.0781 48.9901V39.1523H40.0154C40.8921 39.1523 41.5984 39.8701 41.5984 40.7408V40.7521C41.5984 41.6236 42.3131 42.3263 43.1898 42.3263H53.6803C54.1017 42.3259 54.5058 42.1594 54.8041 41.8632C55.1024 41.5671 55.2705 41.1654 55.2717 40.7461C55.2717 39.8716 55.9788 39.1523 56.8548 39.1523H64.7928L64.792 48.9908Z" fill="#025AE0"/>
<path d="M64.792 48.9908C64.792 49.6306 64.5025 50.2058 64.0457 50.5913L63.953 50.6663C63.5908 50.9395 63.1486 51.087 62.6941 51.0863H34.1768C33.919 51.0863 33.6725 51.0398 33.4448 50.9543L33.3318 50.9093C32.9587 50.7442 32.6418 50.475 32.4193 50.1344C32.1968 49.7938 32.0783 49.3963 32.0781 48.9901V39.1523H40.0154C40.8921 39.1523 41.5984 39.8701 41.5984 40.7408V40.7521C41.5984 41.6236 42.3131 42.3263 43.1898 42.3263H53.6803C54.1017 42.3259 54.5058 42.1594 54.8041 41.8632C55.1024 41.5671 55.2705 41.1654 55.2717 40.7461C55.2717 39.8716 55.9788 39.1523 56.8548 39.1523H64.7928L64.792 48.9908Z" fill="white" fill-opacity="0.9"/>
<defs>
<linearGradient id="paint0_linear_2920_53866" x1="50.6615" y1="27.9586" x2="50.6615" y2="-6.30402" gradientUnits="userSpaceOnUse">
<stop stop-color="#DEDEDE" stop-opacity="0"/>
<stop offset="1" stop-color="#A9A9A9" stop-opacity="0.3"/>
</linearGradient>
<linearGradient id="paint1_linear_2920_53866" x1="46.4073" y1="56.9787" x2="46.4073" y2="47.2617" gradientUnits="userSpaceOnUse">
<stop stop-color="white" stop-opacity="0"/>
<stop offset="1" stop-color="#96A1C5" stop-opacity="0.373"/>
</linearGradient>
<linearGradient id="paint2_linear_2920_53866" x1="48.9983" y1="59.7537" x2="48.9983" y2="43.7965" gradientUnits="userSpaceOnUse">
<stop stop-color="white" stop-opacity="0"/>
<stop offset="1" stop-color="#919191" stop-opacity="0.15"/>
</linearGradient>
</defs>
</svg>
