<svg width="32" height="32" viewBox="0 0 32 32" fill="none" xmlns="http://www.w3.org/2000/svg">
<g clip-path="url(#clip0_2920_59239)">
<path d="M15.4346 22.6261V31.8345L1.62891 27.9794V19.6064L15.4346 22.6261Z" fill="#EBBE8F" stroke="#F9D0A2" stroke-width="0.5"/>
<path d="M30.9992 26.3894L15.6875 31.8218V22.5697L30.9992 18.4844V26.3894Z" fill="#DD9D69" stroke="#C38957" stroke-width="0.5"/>
<path d="M15.4973 22.3375L31.1228 18.2591L26.2908 17.3179L12.5479 16.6904L1.62891 19.3885L15.4973 22.3375Z" fill="#F4D8A6" stroke="#FBE6C7" stroke-width="0.5"/>
<path d="M9.53761 21.2703V25.7252L6.02344 24.9095V20.5801L9.53761 21.2703Z" fill="#AA7A56"/>
<path d="M15.4991 19.4512L9.53761 21.208L6.02344 20.3924L11.1692 18.9492L15.4991 19.4512Z" fill="#D7AA8D"/>
<path d="M6.52468 20.2666C5.77189 20.3293 6.02545 20.5803 6.02548 20.6431L9.53962 21.3333C9.53962 21.2078 9.9757 21.0195 10.2267 21.0195L6.52468 20.2666Z" fill="#F1C8AC"/>
<path d="M8.21875 20.6433L12.2977 19.2002" stroke="#7E5738" stroke-width="0.5"/>
<path d="M7.78125 20.9573C7.78125 20.9573 8.09502 20.7063 8.22052 20.6436" stroke="#CC9971" stroke-width="0.5"/>
<path d="M6.02344 20.6436L9.53761 21.3338" stroke="#7E5738" stroke-width="0.5"/>
<path d="M4.95703 5.08231L20.206 7.02741L21.9631 3.19996L13.2404 2.50977L4.95703 5.08231Z" fill="#AC5E2B"/>
<path d="M13.3008 6.14898V2.50977L21.7097 3.07447L20.3291 7.02741L13.3008 6.14898Z" fill="#914E1F"/>
<path d="M20.0787 7.01347V20.4392L5.39453 18.7118V5.28613L20.0787 7.01347Z" fill="#EBBE8F" stroke="#FAD19B" stroke-width="0.5"/>
<path d="M27.3926 17.2568L20.4102 19.9043V7.27539L27.3926 4.62793V17.2568Z" fill="#DD9D69" stroke="#D38C5B" stroke-width="0.5"/>
<path d="M21.7759 2.69804L29.0552 0L27.6746 3.8902L20.207 6.96471L21.7759 2.69804Z" fill="#C27747"/>
<path d="M9.03542 0.501953L13.2399 2.5098L5.08198 5.08235L0.25 2.5098L9.03542 0.501953Z" fill="#EBBE8F"/>
<path d="M18.0084 14.7455L20.142 6.96512L5.45779 5.14551L5.26953 12.2984L18.0084 14.7455Z" fill="#E0A97A"/>
<path d="M5.1945 5.06641L20.16 6.66641L16.4186 13.3331L1.45312 10.4664L5.1945 5.06641Z" fill="#F4D8A6" stroke="#F4E3C5" stroke-width="0.5"/>
<path d="M24.0977 8.0318L20.207 6.96514L27.6746 3.89062V6.33768L24.0977 8.0318Z" fill="#D28A59"/>
</g>
<defs>
<clipPath id="clip0_2920_59239">
<rect width="31" height="32" fill="white" transform="translate(0.25)"/>
</clipPath>
</defs>
</svg>
