<svg width="34" height="32" viewBox="0 0 34 32" fill="none" xmlns="http://www.w3.org/2000/svg">
<g clip-path="url(#clip0_2920_59260)">
<path d="M8.15234 5.2973C8.20495 2.28272 8.57542 0.648649 11.4312 0H21.9023C24.6356 0.519829 25.4803 1.60515 25.6043 5.2973H23.1716C23.1796 3.42428 22.8682 2.79029 21.9023 2.37838H11.4312C10.5421 2.75029 10.2761 3.25578 10.3735 5.2973H8.15234Z" fill="#71401A"/>
<path d="M31.4231 6.70312H3.07692C1.7918 6.70312 0.75 7.76796 0.75 9.0815V29.622C0.75 30.9356 1.7918 32.0004 3.07692 32.0004H31.4231C32.7082 32.0004 33.75 30.9356 33.75 29.622V9.0815C33.75 7.76796 32.7082 6.70312 31.4231 6.70312Z" fill="#6F411A"/>
<path d="M0.75 8.86529C0.75 7.67117 1.69709 6.70312 2.86538 6.70312H31.6346C32.8029 6.70312 33.75 7.67117 33.75 8.86529V16.9743L17.1442 19.8923L0.75 16.9743V8.86529Z" fill="#5C2F0F"/>
<path d="M0.75 8.86529C0.75 7.67117 1.69709 6.70312 2.86538 6.70312H31.6346C32.8029 6.70312 33.75 7.67117 33.75 8.86529V16.2166L17.1442 18.9193L0.75 16.2166V8.86529Z" fill="#9A5C28"/>
<path d="M18.9417 16.2158H15.5571C15.0898 16.2158 14.7109 16.603 14.7109 17.0807V20.1077C14.7109 20.5854 15.0898 20.9726 15.5571 20.9726H18.9417C19.409 20.9726 19.7879 20.5854 19.7879 20.1077V17.0807C19.7879 16.603 19.409 16.2158 18.9417 16.2158Z" fill="#F3AE31"/>
<path d="M18.5174 16.6484H15.979C15.5116 16.6484 15.1328 17.0357 15.1328 17.5133V19.6755C15.1328 20.1531 15.5116 20.5403 15.979 20.5403H18.5174C18.9847 20.5403 19.3636 20.1531 19.3636 19.6755V17.5133C19.3636 17.0357 18.9847 16.6484 18.5174 16.6484Z" fill="#E18625"/>
<path d="M17.2485 19.4592C17.7158 19.4592 18.0947 19.072 18.0947 18.5944C18.0947 18.1167 17.7158 17.7295 17.2485 17.7295C16.7812 17.7295 16.4023 18.1167 16.4023 18.5944C16.4023 19.072 16.7812 19.4592 17.2485 19.4592Z" fill="#FCA341"/>
<path d="M12.8077 5.18945H6.25V6.70297H12.8077V5.18945Z" fill="#F0AE25"/>
<path d="M28.0382 5.18945H21.4805V6.70297H28.0382V5.18945Z" fill="#F0AE25"/>
</g>
<defs>
<clipPath id="clip0_2920_59260">
<rect width="33" height="32" fill="white" transform="translate(0.75)"/>
</clipPath>
</defs>
</svg>
