<svg width="12" height="12" viewBox="0 0 12 12" fill="none" xmlns="http://www.w3.org/2000/svg">
<path d="M3 4.5C3 5.29565 3.31607 6.05871 3.87868 6.62132C4.44129 7.18393 5.20435 7.5 6 7.5C6.79565 7.5 7.55871 7.18393 8.12132 6.62132C8.68393 6.05871 9 5.29565 9 4.5C9 3.70435 8.68393 2.94129 8.12132 2.37868C7.55871 1.81607 6.79565 1.5 6 1.5C5.20435 1.5 4.44129 1.81607 3.87868 2.37868C3.31607 2.94129 3 3.70435 3 4.5Z" fill="white" stroke="white" stroke-linecap="round" stroke-linejoin="round"/>
<path d="M5.99822 7.5L7.69822 10.445L8.49722 8.8285L10.2962 8.9445L8.59622 6M3.39922 6L1.69922 8.945L3.49822 8.8285L4.29722 10.4445L5.99722 7.5" stroke="white" stroke-linecap="round" stroke-linejoin="round"/>
</svg>
